<?xml version="1.0" encoding="utf-8"?>
<!-- Generator: Adobe Illustrator 19.2.0, SVG Export Plug-In . SVG Version: 6.00 Build 0)  -->
<svg version="1.1" id="Layer_1" xmlns="http://www.w3.org/2000/svg" xmlns:xlink="http://www.w3.org/1999/xlink" x="0px" y="0px"
	 viewBox="0 0 173.5 73" style="enable-background:new 0 0 173.5 73;" xml:space="preserve">
<style type="text/css">
	.st0{fill:#CDCCCC;}
</style>
<g>
	<path class="st0" d="M157.5,16.8L157.5,16.8c0.1,0,0.2,0,0.3,0c0.1,0,0.2,0,0.3,0c0.1,0,0.2,0,0.3,0c0.5,0,1.1,0,1.5-0.4
		c0,0,0.1-0.1,0.1-0.1c-0.2-0.4-0.2-0.6-0.4-1c-0.2-0.1-0.4-0.1-0.6-0.1c-0.5,0-1,0.2-1.4,0.5c-0.2,0.2-0.3,0.5-0.3,0.9
		C157.4,16.7,157.5,16.8,157.5,16.8z"/>
	<path class="st0" d="M105.8,40c0,0-0.1,0.1-0.2,0.1c-0.2,0-0.3,0.1-0.3,0.3s0.1,0.3,0.3,0.3c0.3,0,0.5-0.1,0.6-0.3
		c0.1-0.1,0.1-0.3,0.2-0.5C106.3,39.9,106.1,39.9,105.8,40C105.8,40,105.8,40,105.8,40z"/>
	<path class="st0" d="M157.4,49.7v-1.1c0-0.2-0.1-0.3-0.3-0.3h-0.9c-0.1,0.6-0.1,1.1-0.2,1.7h1.1C157.3,50,157.4,49.9,157.4,49.7z"
		/>
	<path class="st0" d="M117.8,24.4c0.1,0,0.1,0,0.2-0.1c0.1-0.1,0.1-0.1,0.1-0.2c-0.2-1-0.7-1.6-1.4-2c0,0.3-0.1,0.6-0.1,0.9
		c0,0.1,0,0.1,0,0.2c0,0.4,0,0.8,0.1,1.3c0,0.2,0,0.4,0.1,0.6c0,0,0,0,0,0c0.2-0.3,0.4-0.6,0.9-0.6
		C117.6,24.4,117.7,24.4,117.8,24.4C117.8,24.4,117.8,24.4,117.8,24.4z"/>
	<path class="st0" d="M92,28.1C92,28.1,92.1,28.1,92,28.1c0.1-0.1,0.1-0.1,0.1-0.1c0-0.1,0.1-0.2,0.3-0.2c0.2-0.1,0.6-0.2,0.5-0.6
		c0-0.1-0.1-0.1-0.1-0.1c-0.3,0-0.6-0.2-0.9-0.4c-0.4-0.2-0.7-0.4-1.1-0.4c0,0.1,0,0.3,0,0.4c0,0.1,0,0.3,0.1,0.4
		c0.1,0.1,0.1,0.2,0.2,0.3C91.3,27.6,91.5,28,92,28.1C92,28.1,92,28.1,92,28.1z"/>
	<path class="st0" d="M69.3,34c0,0.1-0.1,0.2-0.1,0.4c0,0,0,0.1,0,0.1l0,0C69.2,34.3,69.3,34.2,69.3,34C69.3,34,69.3,34,69.3,34
		C69.3,34,69.3,34,69.3,34z"/>
	<path class="st0" d="M23.7,51.9c0,0.1,0.1,0.2,0.2,0.2l0.3,0c0.8,0,1.4-0.9,0.9-1.6c-0.2-0.3-0.5-0.4-0.8-0.5c0,0,0,0,0,0
		c-0.1,0-0.2,0.1-0.2,0.2c0,0.2-0.1,0.3-0.2,0.4C23.7,50.9,23.5,51.3,23.7,51.9z"/>
	<path class="st0" d="M3,64.5c-0.4-0.3-0.7-0.2-0.9-0.1c-0.4,0.2-0.5,0.7-0.5,1c0,0.3,0.1,0.6,0.3,0.8c0.1,0.1,0.3,0.2,0.5,0.1
		c0.1,0,0.2-0.1,0.2-0.2c0-0.2,0-0.3,0.1-0.3c0,0,0,0,0.1,0c0.1,0,0.1,0,0.2,0c0.1,0,0.1-0.1,0.1-0.2l0-0.9
		C3.2,64.7,3.1,64.6,3,64.5z"/>
	<path class="st0" d="M143.4,17.6c0,0.2,0,0.3,0,0.5c0,0.3,0,0.7,0.3,0.9c0.2,0.2,0.5,0.2,0.9,0c0.1,0,0.1-0.1,0.2-0.2
		c0-0.2,0-0.4,0-0.5c0-0.5-0.1-0.8-0.3-1c-0.3,0-0.7,0-1.1,0C143.4,17.4,143.4,17.5,143.4,17.6z"/>
	<path class="st0" d="M46.7,41.2c-0.1,0-0.2,0-0.3,0c-0.1,0-0.2,0.1-0.2,0.2c-0.2,1.4,0.4,1.8,1,1.9c0,0,0,0,0,0
		c0.1,0,0.1,0,0.1-0.1c0.4-0.4,0.5-0.9,0.3-1.4C47.6,41.5,47.2,41.2,46.7,41.2z"/>
	<path class="st0" d="M70.7,22.3C70.7,22.3,70.7,22.3,70.7,22.3c0.1,0,0.1,0,0.1-0.1c0,0,0,0,0.1,0c0.2-0.2,0.4-0.3,0.4-0.5
		c0-0.1-0.2-0.2-0.3-0.2c0,0,0,0,0,0c0,0-0.1,0-0.1,0c0,0,0,0,0,0.1c0,0,0,0,0,0c0,0,0,0-0.1,0c0,0,0,0-0.1,0
		c-0.1,0-0.2,0.2-0.2,0.4C70.5,22.2,70.6,22.3,70.7,22.3z"/>
	<path class="st0" d="M98,2.2C98,2.2,98,2.2,98,2.2c0.1,0.3,0.4,0.6,0.6,0.6c0.1,0,0.1,0,0.1,0.1c0,0.1,0.1,0.2,0.3,0.2
		c0,0,0.1,0,0.1,0c0,0,0.1,0,0.1-0.1c0.1-0.9-0.2-1.4-0.9-1.6c0,0,0,0,0,0c0,0,0,0-0.1,0c0,0,0,0,0,0.1c0,0.1,0,0.2-0.1,0.3
		C98.1,1.9,98,2,98,2.2z"/>
	<path class="st0" d="M78,6.2c0,0-0.1,0.1-0.1,0.2c0,0.2-0.1,0.3-0.2,0.4c-0.1,0.2-0.3,0.4-0.2,0.9c0,0.1,0.1,0.2,0.2,0.2h0.8
		c0.2,0,0.4,0,0.5-0.2c0.1-0.1,0.1-0.3,0.1-0.4c0-0.1-0.1-0.2-0.2-0.2c-0.1,0-0.2-0.1-0.3-0.3c-0.1-0.2-0.2-0.5-0.5-0.5c0,0,0,0,0,0
		C78.1,6.1,78.1,6.1,78,6.2z"/>
	<path class="st0" d="M61.3,34.6c-0.2,0-0.5,0-0.6,0.2c0.2,0.2,0.3,0.5,0.5,0.8c0,0,0.1,0,0.1,0c0.3,0,0.5-0.1,0.7-0.1
		c0.1,0,0.3-0.1,0.4-0.1c0,0,0.1,0,0.1-0.1c0-0.4,0-0.7-0.2-0.9c-0.1-0.1-0.2-0.1-0.4-0.1c0,0-0.1,0-0.1,0c0,0,0,0-0.1,0
		c0,0,0,0,0,0.1c0,0.1,0,0.1,0,0.2C61.6,34.6,61.4,34.6,61.3,34.6z"/>
	<path class="st0" d="M170.2,18.8C170.2,18.8,170.2,18.8,170.2,18.8c0,0.1,0.1,0.2,0.2,0.2c0.7,0.1,1.1,0.1,1.3-0.1
		c0.1-0.1,0.2-0.2,0.2-0.4c0-0.4-0.4-0.7-0.9-0.8C170.9,17.8,170.3,17.8,170.2,18.8z"/>
	<path class="st0" d="M57.2,24.2c0.5-0.1,0.9-0.3,1.4-0.4C57.9,23.5,57.5,23.9,57.2,24.2z"/>
	<path class="st0" d="M70,13.5L70,13.5c0-0.1,0-0.2,0-0.2c0-0.2,0-0.4,0.1-0.6c-0.3,0-0.5,0-0.7,0c-0.1,0-0.3,0-0.4,0
		c0,0.4,0.1,0.8,0.4,1c0.1,0.1,0.3,0.2,0.5,0.1C69.9,13.7,70,13.6,70,13.5z"/>
	<path class="st0" d="M87.2,14.8C87.2,14.8,87.2,14.8,87.2,14.8c0-0.1,0-0.1,0-0.2C87,14.5,87,14.3,87,14.1c0-0.1,0-0.2,0-0.4
		c0-0.1,0-0.2,0-0.3c0-0.3-0.2-0.5-0.6-0.6c0,0-0.1,0-0.1,0c0,0-0.1,0.1-0.1,0.1c0,0.1-0.1,0.2-0.4,0.2c-0.1,0-0.1,0-0.2,0.1
		c0,0.1-0.1,0.3-0.1,0.4c0,0.3,0.1,0.4,0.2,0.6c0.1,0.1,0.2,0.2,0.2,0.4c0,0,0,0.1,0,0.1c0,0,0,0,0,0c0,0,0,0.1,0,0.1
		c0,0,0.1,0.1,0.1,0.1l0.9,0C87.1,14.9,87.1,14.9,87.2,14.8z"/>
	<path class="st0" d="M84.4,7.3c0,0.2,0,0.3,0,0.4c0,0.3,0,0.6,0.3,0.8c0.2,0.1,0.5,0.2,0.9,0c0.1,0,0.1-0.1,0.1-0.2
		c0-0.2,0-0.3,0-0.5c0-0.4-0.1-0.7-0.2-0.9c-0.3,0-0.6,0-1,0C84.4,7.1,84.4,7.2,84.4,7.3z"/>
	<path class="st0" d="M2.3,33.5h1c0.1,0,0.2-0.1,0.2-0.2v-0.8c-0.5-0.1-1-0.1-1.5-0.2v1C2,33.4,2.1,33.5,2.3,33.5z"/>
	<path class="st0" d="M23.4,33.9C23.4,34,23.4,34,23.4,33.9c0.1,0.1,0.1,0.1,0.1,0.2c0.2,0,0.2,0.1,0.3,0.4c0.1,0.3,0.2,0.6,0.7,0.6
		c0.1,0,0.1-0.1,0.1-0.1c0-0.3,0.2-0.7,0.4-1c0.2-0.4,0.4-0.8,0.5-1.2c-0.2,0-0.3,0-0.5,0c-0.1,0-0.3,0-0.4,0.1
		c-0.1,0.1-0.2,0.1-0.4,0.2C23.9,33.2,23.5,33.4,23.4,33.9L23.4,33.9z"/>
	<path class="st0" d="M157.4,13.1C157.4,13.1,157.4,13.1,157.4,13.1c-0.3,0.1-0.6,0.5-0.6,0.6c0,0.1,0,0.1-0.1,0.1
		c-0.1,0-0.2,0.1-0.2,0.3c0,0,0,0.1,0,0.1c0,0,0,0.1,0.1,0.1c0.9,0.1,1.5-0.2,1.8-1c0,0,0,0,0,0c0,0,0-0.1,0-0.1c0,0,0,0-0.1,0
		c-0.2,0-0.2,0-0.3-0.1C157.7,13.2,157.6,13.1,157.4,13.1z"/>
	<path class="st0" d="M76.5,27.1v-0.2c0-0.3-0.3-0.6-0.6-0.6h-0.2c-0.3,0-0.6,0.3-0.6,0.6v0.2c0,0.3,0.3,0.6,0.6,0.6h0.2
		C76.2,27.7,76.5,27.4,76.5,27.1z"/>
	<path class="st0" d="M40.6,65.9c0.3-0.4,0.2-0.7,0.1-0.9c-0.2-0.4-0.7-0.5-1-0.5c-0.3,0-0.6,0.1-0.8,0.3c-0.1,0.1-0.2,0.3-0.1,0.5
		c0,0.1,0.1,0.2,0.2,0.2c0.2,0,0.3,0,0.3,0.1c0,0,0,0,0,0.1c0,0.1,0,0.1,0,0.2c0,0.1,0.1,0.1,0.2,0.1l0.9,0
		C40.5,66,40.6,66,40.6,65.9z"/>
</g>
</svg>
