<?xml version="1.0" encoding="utf-8"?>
<!-- Generator: Adobe Illustrator 19.2.0, SVG Export Plug-In . SVG Version: 6.00 Build 0)  -->
<svg version="1.1" id="Layer_1" xmlns="http://www.w3.org/2000/svg" xmlns:xlink="http://www.w3.org/1999/xlink" x="0px" y="0px"
	 viewBox="0 0 363.5 282.8" style="enable-background:new 0 0 363.5 282.8;" xml:space="preserve">
<style type="text/css">
	.st0{fill:#333E48;}
</style>
<g>
	<g>
		<path class="st0" d="M315.2,120.9C315.2,120.9,315.2,120.9,315.2,120.9c0.1,0,0.2,0,0.3,0c0.1,0,0.2,0,0.3,0c0.1,0,0.2,0,0.3,0
			c0.5,0,1.1,0,1.5-0.4c0,0,0.1-0.1,0.1-0.1c-0.2-0.4-0.2-0.6-0.4-1c-0.2-0.1-0.4-0.1-0.6-0.1c-0.5,0-1,0.2-1.4,0.5
			c-0.2,0.2-0.3,0.5-0.3,0.9C315,120.9,315.1,120.9,315.2,120.9z"/>
		<path class="st0" d="M263.5,144.1c0,0-0.1,0.1-0.2,0.1c-0.2,0-0.3,0.1-0.3,0.3s0.1,0.3,0.3,0.3c0.3,0,0.5-0.1,0.6-0.3
			c0.1-0.1,0.1-0.3,0.2-0.5C263.9,144.1,263.7,144.1,263.5,144.1C263.5,144.1,263.5,144.1,263.5,144.1z"/>
		<path class="st0" d="M315,153.8v-1.1c0-0.2-0.1-0.3-0.3-0.3h-0.9c-0.1,0.6-0.1,1.1-0.2,1.7h1.1C314.9,154.1,315,154,315,153.8z"/>
		<path class="st0" d="M275.5,128.5c0.1,0,0.1,0,0.2-0.1c0.1-0.1,0.1-0.1,0.1-0.2c-0.2-1-0.7-1.6-1.4-2c0,0.3-0.1,0.6-0.1,0.9
			c0,0.1,0,0.1,0,0.2c0,0.4,0,0.8,0.1,1.3c0,0.2,0,0.4,0.1,0.6c0,0,0,0,0,0c0.2-0.3,0.4-0.6,0.9-0.6
			C275.3,128.5,275.3,128.5,275.5,128.5C275.4,128.5,275.4,128.5,275.5,128.5z"/>
		<path class="st0" d="M249.6,132.2C249.7,132.2,249.7,132.2,249.6,132.2c0.1-0.1,0.1-0.1,0.1-0.1c0-0.1,0.1-0.2,0.3-0.2
			c0.2-0.1,0.6-0.2,0.5-0.6c0-0.1-0.1-0.1-0.1-0.1c-0.3,0-0.6-0.2-0.9-0.4c-0.4-0.2-0.7-0.4-1.1-0.4c0,0.1,0,0.3,0,0.4
			c0,0.1,0,0.3,0.1,0.4c0.1,0.1,0.1,0.2,0.2,0.3C248.9,131.8,249.1,132.2,249.6,132.2C249.6,132.2,249.6,132.2,249.6,132.2z"/>
		<path class="st0" d="M226.9,138.1c0,0.1-0.1,0.2-0.1,0.4c0,0,0,0.1,0,0.1l0,0C226.9,138.5,226.9,138.3,226.9,138.1
			C226.9,138.2,226.9,138.1,226.9,138.1C226.9,138.1,226.9,138.1,226.9,138.1z"/>
		<path class="st0" d="M181.3,156c0,0.1,0.1,0.2,0.2,0.2h0.3c0.8,0,1.4-0.9,0.9-1.6c-0.2-0.3-0.5-0.4-0.8-0.5c0,0,0,0,0,0
			c-0.1,0-0.2,0.1-0.2,0.2c0,0.2-0.1,0.3-0.2,0.4C181.4,155.1,181.2,155.4,181.3,156z"/>
		<path class="st0" d="M160.7,168.7c-0.4-0.3-0.7-0.2-0.9-0.1c-0.4,0.2-0.5,0.7-0.5,1c0,0.3,0.1,0.6,0.3,0.8
			c0.1,0.1,0.3,0.2,0.5,0.1c0.1,0,0.2-0.1,0.2-0.2c0-0.2,0-0.3,0.1-0.3c0,0,0,0,0.1,0c0.1,0,0.1,0,0.2,0c0.1,0,0.1-0.1,0.1-0.2
			l0-0.9C160.8,168.8,160.7,168.7,160.7,168.7z"/>
		<path class="st0" d="M301.1,121.8c0,0.2,0,0.3,0,0.5c0,0.3,0,0.7,0.3,0.9c0.2,0.2,0.5,0.2,0.9,0c0.1,0,0.1-0.1,0.2-0.2
			c0-0.2,0-0.4,0-0.5c0-0.5-0.1-0.8-0.3-1c-0.3,0-0.7,0-1.1,0C301.1,121.5,301.1,121.6,301.1,121.8z"/>
		<path class="st0" d="M241,100.4c0-0.1,0-0.3,0-0.4c0,0.1,0,0.2,0,0.2C241,100.3,241,100.3,241,100.4z"/>
		<path class="st0" d="M204.3,145.4c-0.1,0-0.2,0-0.3,0c-0.1,0-0.2,0.1-0.2,0.2c-0.2,1.4,0.4,1.8,1,1.9c0,0,0,0,0,0
			c0.1,0,0.1,0,0.1-0.1c0.4-0.4,0.5-0.9,0.3-1.4C205.2,145.6,204.8,145.4,204.3,145.4z"/>
		<path class="st0" d="M228.3,126.4C228.3,126.4,228.4,126.4,228.3,126.4c0.1,0,0.1,0,0.1-0.1c0,0,0,0,0.1,0
			c0.2-0.2,0.4-0.3,0.4-0.5c0-0.1-0.2-0.2-0.3-0.2c0,0,0,0,0,0c0,0-0.1,0-0.1,0c0,0,0,0,0,0.1c0,0,0,0,0,0c0,0,0,0-0.1,0
			c0,0,0,0-0.1,0c-0.1,0-0.2,0.2-0.2,0.4C228.1,126.3,228.2,126.4,228.3,126.4z"/>
		<path class="st0" d="M255.7,106.3C255.7,106.3,255.7,106.3,255.7,106.3c0.1,0.3,0.4,0.6,0.6,0.6c0.1,0,0.1,0,0.1,0.1
			c0,0.1,0.1,0.2,0.3,0.2c0,0,0.1,0,0.1,0c0,0,0.1,0,0.1-0.1c0.1-0.9-0.2-1.4-0.9-1.6c0,0,0,0,0,0c0,0,0,0-0.1,0c0,0,0,0,0,0.1
			c0,0.1,0,0.2-0.1,0.3C255.7,106,255.6,106.1,255.7,106.3z"/>
		<path class="st0" d="M235.7,110.3c0,0-0.1,0.1-0.1,0.2c0,0.2-0.1,0.3-0.2,0.4c-0.1,0.2-0.3,0.4-0.2,0.9c0,0.1,0.1,0.2,0.2,0.2h0.8
			c0.2,0,0.4,0,0.5-0.2c0.1-0.1,0.1-0.3,0.1-0.4c0-0.1-0.1-0.2-0.2-0.2c-0.1,0-0.2-0.1-0.3-0.3c-0.1-0.2-0.2-0.5-0.5-0.5
			c0,0,0,0,0,0C235.7,110.3,235.7,110.3,235.7,110.3z"/>
		<path class="st0" d="M218.9,138.7c-0.2,0-0.5,0-0.6,0.2c0.2,0.2,0.3,0.5,0.5,0.8c0,0,0.1,0,0.1,0c0.3,0,0.5-0.1,0.7-0.1
			c0.1,0,0.3-0.1,0.4-0.1c0,0,0.1,0,0.1-0.1c0-0.4,0-0.7-0.2-0.9c-0.1-0.1-0.2-0.1-0.4-0.1c0,0-0.1,0-0.1,0c0,0,0,0-0.1,0s0,0,0,0.1
			c0,0.1,0,0.1,0,0.2C219.2,138.7,219.1,138.7,218.9,138.7z"/>
		<path class="st0" d="M327.9,122.9C327.9,122.9,327.9,122.9,327.9,122.9c0,0.1,0.1,0.2,0.2,0.2c0.7,0.1,1.1,0.1,1.3-0.1
			c0.1-0.1,0.2-0.2,0.2-0.4c0-0.4-0.4-0.7-0.9-0.8C328.5,121.9,328,122,327.9,122.9z"/>
		<path class="st0" d="M214.8,128.3c0.5-0.1,0.9-0.3,1.4-0.4C215.5,127.7,215.1,128,214.8,128.3z"/>
		<path class="st0" d="M227.6,117.6L227.6,117.6c0-0.1,0-0.2,0-0.2c0-0.2,0-0.4,0.1-0.6c-0.3,0-0.5,0-0.7,0c-0.1,0-0.3,0-0.4,0
			c0,0.4,0.1,0.8,0.4,1c0.1,0.1,0.3,0.2,0.5,0.1C227.5,117.8,227.6,117.7,227.6,117.6z"/>
		<path class="st0" d="M244.8,119C244.8,118.9,244.8,118.9,244.8,119c0-0.1,0-0.1,0-0.2c-0.1-0.2-0.2-0.4-0.2-0.6c0-0.1,0-0.2,0-0.4
			c0-0.1,0-0.2,0-0.3c0-0.3-0.2-0.5-0.6-0.6c0,0-0.1,0-0.1,0c0,0-0.1,0.1-0.1,0.1c0,0.1-0.1,0.2-0.4,0.2c-0.1,0-0.1,0-0.2,0.1
			c0,0.1-0.1,0.3-0.1,0.4c0,0.3,0.1,0.4,0.2,0.6c0.1,0.1,0.2,0.2,0.2,0.4c0,0,0,0.1,0,0.1c0,0,0,0,0,0c0,0,0,0.1,0,0.1
			c0,0,0.1,0.1,0.1,0.1l0.9,0C244.7,119,244.8,119,244.8,119z"/>
		<path class="st0" d="M242.1,111.4c0,0.2,0,0.3,0,0.4c0,0.3,0,0.6,0.3,0.8c0.2,0.1,0.5,0.2,0.9,0c0.1,0,0.1-0.1,0.1-0.2
			c0-0.2,0-0.3,0-0.5c0-0.4-0.1-0.7-0.2-0.9c-0.3,0-0.6,0-1,0C242.1,111.2,242.1,111.3,242.1,111.4z"/>
		<path class="st0" d="M159.9,137.7h1c0.1,0,0.2-0.1,0.2-0.2v-0.8c-0.5-0.1-1-0.1-1.5-0.2v1C159.7,137.6,159.8,137.7,159.9,137.7z"
			/>
		<path class="st0" d="M181,138.1C181,138.1,181,138.2,181,138.1c0.1,0.1,0.1,0.1,0.1,0.2c0.2,0,0.2,0.1,0.3,0.4
			c0.1,0.3,0.2,0.6,0.7,0.6c0.1,0,0.1-0.1,0.1-0.1c0-0.3,0.2-0.7,0.4-1c0.2-0.4,0.4-0.8,0.5-1.2c-0.2,0-0.3,0-0.5,0
			c-0.1,0-0.3,0-0.4,0.1c-0.1,0.1-0.2,0.1-0.4,0.2C181.5,137.3,181.1,137.5,181,138.1L181,138.1z"/>
		<path class="st0" d="M315,117.2C315,117.2,315,117.2,315,117.2c-0.3,0.1-0.6,0.5-0.6,0.6c0,0.1,0,0.1-0.1,0.1
			c-0.1,0-0.2,0.1-0.2,0.3c0,0,0,0.1,0,0.1c0,0,0,0.1,0.1,0.1c0.9,0.1,1.5-0.2,1.8-1c0,0,0,0,0,0c0,0,0-0.1,0-0.1c0,0,0,0-0.1,0
			c-0.2,0-0.2,0-0.3-0.1C315.3,117.3,315.2,117.2,315,117.2z"/>
		<path class="st0" d="M234.1,131.2V131c0-0.3-0.3-0.6-0.6-0.6h-0.2c-0.3,0-0.6,0.3-0.6,0.6v0.2c0,0.3,0.3,0.6,0.6,0.6h0.2
			C233.8,131.9,234.1,131.6,234.1,131.2z"/>
		<path class="st0" d="M198.2,170c0.3-0.4,0.2-0.7,0.1-0.9c-0.2-0.4-0.7-0.5-1-0.5c-0.3,0-0.6,0.1-0.8,0.3c-0.1,0.1-0.2,0.3-0.1,0.5
			c0,0.1,0.1,0.2,0.2,0.2c0.2,0,0.3,0,0.3,0.1c0,0,0,0,0,0.1c0,0.1,0,0.1,0,0.2c0,0.1,0.1,0.1,0.2,0.1l0.9,0
			C198.1,170.1,198.2,170.1,198.2,170z"/>
	</g>
	<path class="st0" d="M359.7,216.5C359.7,216.5,359.8,216.5,359.7,216.5c0.1,0,0.2,0,0.3,0c0.1,0,0.2,0,0.3,0c0.1,0,0.2,0,0.3,0
		c0.5,0,1.1,0,1.5-0.4c0,0,0.1-0.1,0.1-0.1c-0.2-0.4-0.2-0.6-0.4-1c-0.2-0.1-0.4-0.1-0.6-0.1c-0.5,0-1,0.2-1.4,0.5
		c-0.2,0.2-0.3,0.5-0.3,0.9C359.6,216.4,359.7,216.5,359.7,216.5z"/>
	<path class="st0" d="M206.6,44.4c0,0-0.1,0.1-0.2,0.1c-0.2,0-0.3,0.1-0.3,0.3s0.1,0.3,0.3,0.3c0.3,0,0.5-0.1,0.6-0.3
		c0.1-0.1,0.1-0.3,0.2-0.5C207,44.4,206.8,44.4,206.6,44.4C206.6,44.4,206.6,44.4,206.6,44.4z"/>
	<path class="st0" d="M258.1,54.1V53c0-0.2-0.1-0.3-0.3-0.3H257c-0.1,0.6-0.1,1.1-0.2,1.7h1.1C258,54.4,258.1,54.3,258.1,54.1z"/>
	<path class="st0" d="M218.6,28.8c0.1,0,0.1,0,0.2-0.1c0.1-0.1,0.1-0.1,0.1-0.2c-0.2-1-0.7-1.6-1.4-2c0,0.3-0.1,0.6-0.1,0.9
		c0,0.1,0,0.1,0,0.2c0,0.4,0,0.8,0.1,1.3c0,0.2,0,0.4,0.1,0.6c0,0,0,0,0,0c0.2-0.3,0.4-0.6,0.9-0.6
		C218.4,28.8,218.5,28.8,218.6,28.8C218.6,28.8,218.6,28.8,218.6,28.8z"/>
	<path class="st0" d="M192.8,32.5C192.8,32.5,192.8,32.5,192.8,32.5c0.1-0.1,0.1-0.1,0.1-0.1c0-0.1,0.1-0.2,0.3-0.2
		c0.2-0.1,0.6-0.2,0.5-0.6c0-0.1-0.1-0.1-0.1-0.1c-0.3,0-0.6-0.2-0.9-0.4c-0.4-0.2-0.7-0.4-1.1-0.4c0,0.1,0,0.3,0,0.4
		c0,0.1,0,0.3,0.1,0.4c0.1,0.1,0.1,0.2,0.2,0.3C192.1,32.1,192.2,32.5,192.8,32.5C192.7,32.5,192.8,32.5,192.8,32.5z"/>
	<path class="st0" d="M170,38.4c0,0.1-0.1,0.2-0.1,0.4c0,0,0,0.1,0,0.1l0,0C170,38.7,170,38.6,170,38.4
		C170.1,38.5,170,38.4,170,38.4C170,38.4,170,38.4,170,38.4z"/>
	<path class="st0" d="M124.4,56.3c0,0.1,0.1,0.2,0.2,0.2l0.3,0c0.8,0,1.4-0.9,0.9-1.6c-0.2-0.3-0.5-0.4-0.8-0.5c0,0,0,0,0,0
		c-0.1,0-0.2,0.1-0.2,0.2c0,0.2-0.1,0.3-0.2,0.4C124.5,55.4,124.3,55.7,124.4,56.3z"/>
	<path class="st0" d="M103.8,69c-0.4-0.3-0.7-0.2-0.9-0.1c-0.4,0.2-0.5,0.7-0.5,1c0,0.3,0.1,0.6,0.3,0.8c0.1,0.1,0.3,0.2,0.5,0.1
		c0.1,0,0.2-0.1,0.2-0.2c0-0.2,0-0.3,0.1-0.3c0,0,0,0,0.1,0c0.1,0,0.1,0,0.2,0c0.1,0,0.1-0.1,0.1-0.2l0-0.9
		C103.9,69.1,103.9,69,103.8,69z"/>
	<path class="st0" d="M345.6,217.3c0,0.2,0,0.3,0,0.5c0,0.3,0,0.7,0.3,0.9c0.2,0.2,0.5,0.2,0.9,0c0.1,0,0.1-0.1,0.2-0.2
		c0-0.2,0-0.4,0-0.5c0-0.5-0.1-0.8-0.3-1c-0.3,0-0.7,0-1.1,0C345.6,217,345.6,217.2,345.6,217.3z"/>
	<path class="st0" d="M184.2,0.7c0-0.1,0-0.3,0-0.4c0,0.1,0,0.2,0,0.2C184.1,0.6,184.1,0.6,184.2,0.7z"/>
	<path class="st0" d="M147.4,45.7c-0.1,0-0.2,0-0.3,0c-0.1,0-0.2,0.1-0.2,0.2c-0.2,1.4,0.4,1.8,1,1.9c0,0,0,0,0,0
		c0.1,0,0.1,0,0.1-0.1c0.4-0.4,0.5-0.9,0.3-1.4C148.3,45.9,147.9,45.7,147.4,45.7z"/>
	<path class="st0" d="M171.5,26.7C171.5,26.7,171.5,26.7,171.5,26.7c0.1,0,0.1,0,0.1-0.1c0,0,0,0,0.1,0c0.2-0.2,0.4-0.3,0.4-0.5
		c0-0.1-0.2-0.2-0.3-0.2c0,0,0,0,0,0c0,0-0.1,0-0.1,0c0,0,0,0,0,0.1c0,0,0,0,0,0c0,0,0,0-0.1,0c0,0,0,0-0.1,0
		c-0.1,0-0.2,0.2-0.2,0.4C171.3,26.6,171.3,26.7,171.5,26.7z"/>
	<path class="st0" d="M198.8,6.6C198.8,6.6,198.8,6.6,198.8,6.6c0.1,0.3,0.4,0.6,0.6,0.6c0.1,0,0.1,0,0.1,0.1c0,0.1,0.1,0.2,0.3,0.2
		c0,0,0.1,0,0.1,0c0,0,0.1,0,0.1-0.1c0.1-0.9-0.2-1.4-0.9-1.6c0,0,0,0,0,0c0,0,0,0-0.1,0c0,0,0,0,0,0.1c0,0.1,0,0.2-0.1,0.3
		C198.8,6.3,198.8,6.4,198.8,6.6z"/>
	<path class="st0" d="M178.8,10.6c0,0-0.1,0.1-0.1,0.2c0,0.2-0.1,0.3-0.2,0.4c-0.1,0.2-0.3,0.4-0.2,0.9c0,0.1,0.1,0.2,0.2,0.2h0.8
		c0.2,0,0.4,0,0.5-0.2c0.1-0.1,0.1-0.3,0.1-0.4c0-0.1-0.1-0.2-0.2-0.2c-0.1,0-0.2-0.1-0.3-0.3c-0.1-0.2-0.2-0.5-0.5-0.5c0,0,0,0,0,0
		C178.9,10.6,178.8,10.6,178.8,10.6z"/>
	<path class="st0" d="M162,39c-0.2,0-0.5,0-0.6,0.2c0.2,0.2,0.3,0.5,0.5,0.8c0,0,0.1,0,0.1,0c0.3,0,0.5-0.1,0.7-0.1
		c0.1,0,0.3-0.1,0.4-0.1c0,0,0.1,0,0.1-0.1c0-0.4,0-0.7-0.2-0.9c-0.1-0.1-0.2-0.1-0.4-0.1c0,0-0.1,0-0.1,0c0,0,0,0-0.1,0
		c0,0,0,0,0,0.1c0,0.1,0,0.1,0,0.2C162.3,39,162.2,39,162,39z"/>
	<path class="st0" d="M129.3,148.1C129.3,148.1,129.3,148.1,129.3,148.1c0,0.1,0.1,0.2,0.2,0.2c0.7,0.1,1.1,0.1,1.3-0.1
		c0.1-0.1,0.2-0.2,0.2-0.4c0-0.4-0.4-0.7-0.9-0.8C130,147.1,129.4,147.1,129.3,148.1z"/>
	<path class="st0" d="M157.9,28.6c0.5-0.1,0.9-0.3,1.4-0.4C158.6,28,158.2,28.3,157.9,28.6z"/>
	<path class="st0" d="M170.7,17.9C170.7,17.9,170.7,17.9,170.7,17.9c0-0.1,0-0.2,0-0.2c0-0.2,0-0.4,0.1-0.6c-0.3,0-0.5,0-0.7,0
		c-0.1,0-0.3,0-0.4,0c0,0.4,0.1,0.8,0.4,1c0.1,0.1,0.3,0.2,0.5,0.1C170.6,18.1,170.7,18,170.7,17.9z"/>
	<path class="st0" d="M187.9,19.2C187.9,19.2,187.9,19.2,187.9,19.2c0-0.1,0-0.1,0-0.2c-0.1-0.2-0.2-0.4-0.2-0.6c0-0.1,0-0.2,0-0.4
		c0-0.1,0-0.2,0-0.3c0-0.3-0.2-0.5-0.6-0.6c0,0-0.1,0-0.1,0c0,0-0.1,0.1-0.1,0.1c0,0.1-0.1,0.2-0.4,0.2c-0.1,0-0.1,0-0.2,0.1
		c0,0.1-0.1,0.3-0.1,0.4c0,0.3,0.1,0.4,0.2,0.6c0.1,0.1,0.2,0.2,0.2,0.4c0,0,0,0.1,0,0.1c0,0,0,0,0,0c0,0,0,0.1,0,0.1
		c0,0,0.1,0.1,0.1,0.1l0.9,0C187.8,19.3,187.9,19.3,187.9,19.2z"/>
	<path class="st0" d="M185.2,11.7c0,0.2,0,0.3,0,0.4c0,0.3,0,0.6,0.3,0.8c0.2,0.1,0.5,0.2,0.9,0c0.1,0,0.1-0.1,0.1-0.2
		c0-0.2,0-0.3,0-0.5c0-0.4-0.1-0.7-0.2-0.9c-0.3,0-0.6,0-1,0C185.2,11.5,185.2,11.6,185.2,11.7z"/>
	<path class="st0" d="M103,38h1c0.1,0,0.2-0.1,0.2-0.2V37c-0.5-0.1-1-0.1-1.5-0.2v1C102.8,37.9,102.9,38,103,38z"/>
	<path class="st0" d="M124.1,38.4C124.1,38.4,124.2,38.4,124.1,38.4c0.1,0.1,0.1,0.1,0.1,0.2c0.2,0,0.2,0.1,0.3,0.4
		c0.1,0.3,0.2,0.6,0.7,0.6c0.1,0,0.1-0.1,0.1-0.1c0-0.3,0.2-0.7,0.4-1c0.2-0.4,0.4-0.8,0.5-1.2c-0.2,0-0.3,0-0.5,0
		c-0.1,0-0.3,0-0.4,0.1c-0.1,0.1-0.2,0.1-0.4,0.2C124.6,37.6,124.2,37.8,124.1,38.4C124.1,38.4,124.1,38.4,124.1,38.4z"/>
	<path class="st0" d="M359.6,212.8C359.6,212.8,359.6,212.8,359.6,212.8c-0.3,0.1-0.6,0.5-0.6,0.6c0,0.1,0,0.1-0.1,0.1
		c-0.1,0-0.2,0.1-0.2,0.3c0,0,0,0.1,0,0.1c0,0,0,0.1,0.1,0.1c0.9,0.1,1.5-0.2,1.8-1c0,0,0,0,0,0c0,0,0,0,0-0.1c0,0,0,0-0.1,0
		c-0.2,0-0.2,0-0.3-0.1C359.9,212.8,359.8,212.7,359.6,212.8z"/>
	<path class="st0" d="M177.2,31.5v-0.2c0-0.3-0.3-0.6-0.6-0.6h-0.2c-0.3,0-0.6,0.3-0.6,0.6v0.2c0,0.3,0.3,0.6,0.6,0.6h0.2
		C176.9,32.2,177.2,31.9,177.2,31.5z"/>
	<path class="st0" d="M141.4,70.3c0.3-0.4,0.2-0.7,0.1-0.9c-0.2-0.4-0.7-0.5-1-0.5c-0.3,0-0.6,0.1-0.8,0.3c-0.1,0.1-0.2,0.3-0.1,0.5
		c0,0.1,0.1,0.2,0.2,0.2c0.2,0,0.3,0,0.3,0.1c0,0,0,0,0,0.1c0,0.1,0,0.1,0,0.2c0,0.1,0.1,0.1,0.2,0.1l0.9,0
		C141.2,70.4,141.3,70.4,141.4,70.3z"/>
	<path class="st0" d="M1.2,91.8L1.2,91.8c0,0.1,0.1,0.2,0.2,0.2C2,92.2,2.5,92.2,2.7,92c0.1-0.1,0.2-0.2,0.2-0.4
		c0-0.4-0.4-0.7-0.9-0.8C1.8,90.8,1.3,90.9,1.2,91.8z"/>
	<g>
		<path class="st0" d="M64.4,119.3L64.4,119.3c0-0.1,0-0.2,0-0.3c0-0.1,0-0.2,0-0.3c0-0.1,0-0.2,0-0.3c0-0.5,0-1.1-0.4-1.5
			c0,0-0.1-0.1-0.1-0.1c-0.4,0.2-0.6,0.2-1,0.4c-0.1,0.2-0.1,0.4-0.1,0.6c0,0.5,0.2,1,0.5,1.4c0.2,0.2,0.5,0.3,0.9,0.3
			C64.4,119.4,64.4,119.3,64.4,119.3z"/>
		<path class="st0" d="M87.6,171c0,0,0.1,0.1,0.1,0.2c0,0.2,0.1,0.3,0.3,0.3s0.3-0.1,0.3-0.3c0-0.3-0.1-0.5-0.3-0.6
			c-0.1-0.1-0.3-0.1-0.5-0.2C87.6,170.5,87.6,170.7,87.6,171C87.6,171,87.6,171,87.6,171z"/>
		<path class="st0" d="M97.3,119.4h-1.1c-0.2,0-0.3,0.1-0.3,0.3v0.9c0.6,0.1,1.1,0.1,1.7,0.2v-1.1C97.6,119.5,97.5,119.4,97.3,119.4
			z"/>
		<path class="st0" d="M72,159c0-0.1,0-0.1-0.1-0.2c-0.1-0.1-0.1-0.1-0.2-0.1c-1,0.2-1.6,0.7-2,1.4c0.3,0,0.6,0.1,0.9,0.1
			c0.1,0,0.1,0,0.2,0c0.4,0,0.8,0,1.3-0.1c0.2,0,0.4,0,0.6-0.1c0,0,0,0,0,0c-0.3-0.2-0.6-0.4-0.6-0.9C72,159.2,72,159.1,72,159
			C72,159,72,159,72,159z"/>
		<path class="st0" d="M75.7,184.8C75.7,184.8,75.7,184.7,75.7,184.8c-0.1-0.1-0.1-0.1-0.1-0.1c-0.1,0-0.2-0.1-0.2-0.3
			c-0.1-0.2-0.2-0.6-0.6-0.5c-0.1,0-0.1,0.1-0.1,0.1c0,0.3-0.2,0.6-0.4,0.9c-0.2,0.4-0.4,0.7-0.4,1.1c0.1,0,0.3,0,0.4,0
			c0.1,0,0.3,0,0.4-0.1c0.1-0.1,0.2-0.1,0.3-0.2C75.3,185.5,75.7,185.3,75.7,184.8C75.7,184.8,75.7,184.8,75.7,184.8z"/>
		<path class="st0" d="M65.3,133.4c0.2,0,0.3,0,0.5,0c0.3,0,0.7,0,0.9-0.3c0.2-0.2,0.2-0.5,0-0.9c0-0.1-0.1-0.1-0.2-0.2
			c-0.2,0-0.4,0-0.5,0c-0.5,0-0.8,0.1-1,0.3c0,0.3,0,0.7,0,1.1C65,133.4,65.1,133.4,65.3,133.4z"/>
		<path class="st0" d="M43.9,193.4c-0.1,0-0.3,0-0.4,0c0.1,0,0.2,0,0.2,0C43.8,193.4,43.8,193.4,43.9,193.4z"/>
		<path class="st0" d="M69.9,206.1C69.9,206.1,69.9,206.1,69.9,206.1c0-0.1,0-0.1-0.1-0.1c0,0,0,0,0-0.1c-0.2-0.2-0.3-0.4-0.5-0.4
			c-0.1,0-0.2,0.2-0.2,0.3c0,0,0,0,0,0c0,0,0,0.1,0,0.1c0,0,0,0,0.1,0c0,0,0,0,0,0c0,0,0,0,0,0.1c0,0,0,0,0,0.1
			c0,0.1,0.2,0.2,0.4,0.2C69.8,206.3,69.9,206.2,69.9,206.1z"/>
		<path class="st0" d="M49.8,178.8C49.8,178.8,49.8,178.8,49.8,178.8c0.3-0.1,0.6-0.4,0.6-0.6c0-0.1,0-0.1,0.1-0.1
			c0.1,0,0.2-0.1,0.2-0.3c0,0,0-0.1,0-0.1c0,0,0-0.1-0.1-0.1c-0.9-0.1-1.4,0.2-1.6,0.9c0,0,0,0,0,0c0,0,0,0,0,0.1c0,0,0,0,0.1,0
			c0.1,0,0.2,0,0.3,0.1C49.5,178.7,49.6,178.8,49.8,178.8z"/>
		<path class="st0" d="M53.8,198.8c0,0,0.1,0.1,0.2,0.1c0.2,0,0.3,0.1,0.4,0.2c0.2,0.1,0.4,0.3,0.9,0.2c0.1,0,0.2-0.1,0.2-0.2v-0.8
			c0-0.2,0-0.4-0.2-0.5c-0.1-0.1-0.3-0.1-0.4-0.1c-0.1,0-0.2,0.1-0.2,0.2c0,0.1-0.1,0.2-0.3,0.3c-0.2,0.1-0.5,0.2-0.5,0.5
			c0,0,0,0,0,0C53.8,198.7,53.8,198.7,53.8,198.8z"/>
		<path class="st0" d="M62.4,189.6C62.4,189.6,62.4,189.6,62.4,189.6c-0.1,0-0.1,0-0.2,0c-0.2,0.1-0.4,0.2-0.6,0.2
			c-0.1,0-0.2,0-0.4,0c-0.1,0-0.2,0-0.3,0c-0.3,0-0.5,0.2-0.6,0.6c0,0,0,0.1,0,0.1c0,0,0.1,0.1,0.1,0.1c0.1,0,0.2,0.1,0.2,0.4
			c0,0.1,0,0.1,0.1,0.2c0.1,0,0.3,0.1,0.4,0.1c0.3,0,0.4-0.1,0.6-0.2c0.1-0.1,0.2-0.2,0.4-0.2c0,0,0.1,0,0.1,0c0,0,0,0,0,0
			c0,0,0.1,0,0.1,0c0,0,0.1-0.1,0.1-0.1l0-0.9C62.5,189.7,62.5,189.7,62.4,189.6z"/>
		<path class="st0" d="M54.9,192.4c0.2,0,0.3,0,0.4,0c0.3,0,0.6,0,0.8-0.3c0.1-0.2,0.2-0.5,0-0.9c0-0.1-0.1-0.1-0.2-0.1
			c-0.2,0-0.3,0-0.5,0c-0.4,0-0.7,0.1-0.9,0.2c0,0.3,0,0.6,0,1C54.7,192.3,54.8,192.4,54.9,192.4z"/>
		<path class="st0" d="M60.7,119.4C60.7,119.4,60.7,119.4,60.7,119.4c0.1,0.3,0.5,0.6,0.6,0.6c0.1,0,0.1,0,0.1,0.1
			c0,0.1,0.1,0.2,0.3,0.2c0,0,0.1,0,0.1,0c0,0,0.1,0,0.1-0.1c0.1-0.9-0.2-1.5-1-1.8c0,0,0,0,0,0c0,0,0,0-0.1,0c0,0,0,0,0,0.1
			c0,0.2,0,0.2-0.1,0.3C60.8,119.1,60.7,119.2,60.7,119.4z"/>
		<path class="st0" d="M74.7,200.3h-0.2c-0.3,0-0.6,0.3-0.6,0.6v0.2c0,0.3,0.3,0.6,0.6,0.6h0.2c0.3,0,0.6-0.3,0.6-0.6V201
			C75.4,200.6,75.1,200.3,74.7,200.3z"/>
	</g>
	<g>
		<path class="st0" d="M95.2,272.3C95.2,272.3,95.2,272.3,95.2,272.3c-0.1,0-0.2,0-0.3,0c-0.1,0-0.2,0-0.3,0c-0.1,0-0.2,0-0.3,0
			c-0.5,0.1-1.1,0.2-1.4,0.6c0,0-0.1,0.1-0.1,0.2c0.2,0.4,0.3,0.5,0.6,0.9c0.2,0,0.4,0,0.6,0c0.5-0.1,1-0.4,1.3-0.7
			c0.2-0.3,0.3-0.6,0.2-0.9C95.4,272.4,95.3,272.3,95.2,272.3z"/>
		<path class="st0" d="M142.8,241.6c0-0.1,0.1-0.1,0.1-0.1c0.2,0,0.3-0.2,0.2-0.3s-0.2-0.3-0.3-0.2c-0.3,0-0.5,0.2-0.6,0.4
			c-0.1,0.1-0.1,0.3-0.1,0.5C142.4,241.7,142.6,241.7,142.8,241.6C142.8,241.6,142.8,241.6,142.8,241.6z"/>
		<path class="st0" d="M90.4,239.8l0.2,1.1c0,0.1,0.2,0.3,0.3,0.2l0.8-0.1c0-0.6,0-1.2,0-1.7l-1.1,0.2
			C90.5,239.5,90.4,239.6,90.4,239.8z"/>
		<path class="st0" d="M133.3,258.8c-0.1,0-0.1,0-0.1,0.1c0,0.1-0.1,0.1,0,0.2c0.3,1,1,1.5,1.7,1.8c0-0.3,0-0.6,0-0.9
			c0-0.1,0-0.1,0-0.2c-0.1-0.4-0.2-0.8-0.2-1.2c-0.1-0.2-0.1-0.4-0.2-0.6c0,0,0,0,0,0c-0.2,0.4-0.3,0.7-0.8,0.7
			C133.5,258.8,133.4,258.8,133.3,258.8C133.3,258.8,133.3,258.8,133.3,258.8z"/>
		<path class="st0" d="M158.3,251.3C158.3,251.3,158.2,251.3,158.3,251.3c-0.1,0.1-0.1,0.1-0.1,0.1c0,0.1-0.1,0.2-0.3,0.3
			c-0.2,0.1-0.5,0.3-0.4,0.7c0,0.1,0.1,0.1,0.1,0.1c0.3,0,0.6,0.1,1,0.2c0.4,0.1,0.8,0.3,1.1,0.2c0-0.1,0-0.3-0.1-0.4
			c0-0.1-0.1-0.3-0.1-0.3c-0.1-0.1-0.2-0.2-0.2-0.3C159,251.6,158.8,251.2,158.3,251.3C158.3,251.3,158.3,251.3,158.3,251.3z"/>
		<path class="st0" d="M179.9,242c0-0.1,0-0.2,0-0.4c0,0,0-0.1,0-0.1l0,0C179.8,241.6,179.8,241.8,179.9,242
			C179.8,241.9,179.8,242,179.9,242C179.9,242,179.9,242,179.9,242z"/>
		<path class="st0" d="M222.2,217.4c0-0.1-0.1-0.1-0.2-0.1l-0.3,0c-0.8,0.1-1.2,1.1-0.7,1.7c0.2,0.3,0.6,0.3,0.9,0.3c0,0,0,0,0,0
			c0.1,0,0.2-0.1,0.2-0.2c0-0.2,0.1-0.3,0.1-0.5C222.3,218.3,222.4,218,222.2,217.4z"/>
		<path class="st0" d="M240.7,201.7c0.4,0.2,0.7,0.1,0.9,0c0.3-0.3,0.4-0.7,0.3-1.1c-0.1-0.3-0.2-0.6-0.4-0.7
			c-0.2-0.1-0.3-0.1-0.5,0c-0.1,0-0.2,0.1-0.1,0.2c0,0.2,0,0.3,0,0.3c0,0,0,0-0.1,0c-0.1,0-0.1,0-0.2,0.1c0,0.1-0.1,0.1-0.1,0.2
			l0.1,0.9C240.6,201.6,240.6,201.7,240.7,201.7z"/>
		<path class="st0" d="M109,269.4c0-0.2,0-0.3-0.1-0.5c0-0.3-0.1-0.6-0.4-0.8c-0.2-0.1-0.5-0.1-0.9,0.1c-0.1,0-0.1,0.1-0.1,0.2
			c0,0.2,0,0.4,0,0.5c0.1,0.5,0.2,0.8,0.4,1c0.3-0.1,0.6-0.1,1.1-0.2C109.1,269.6,109.1,269.5,109,269.4z"/>
		<path class="st0" d="M171.6,281.4c0,0.1,0,0.3,0.1,0.4c0-0.1,0-0.2,0-0.2C171.7,281.5,171.6,281.5,171.6,281.4z"/>
		<path class="st0" d="M201.1,231.4c0.1,0,0.2,0,0.3-0.1c0.1,0,0.1-0.1,0.1-0.2c0-1.4-0.7-1.7-1.3-1.7c0,0,0,0,0,0
			c-0.1,0-0.1,0-0.1,0.1c-0.3,0.4-0.4,1-0.1,1.4C200.2,231.3,200.6,231.5,201.1,231.4z"/>
		<path class="st0" d="M180.2,253.8C180.2,253.8,180.2,253.8,180.2,253.8c-0.1,0-0.1,0.1-0.1,0.1c0,0,0,0,0,0
			c-0.2,0.2-0.4,0.4-0.3,0.5c0.1,0.1,0.2,0.1,0.3,0.1c0,0,0,0,0,0c0,0,0,0,0.1,0c0,0,0-0.1,0-0.1c0,0,0,0,0,0c0,0,0,0,0.1,0
			c0,0,0,0,0.1,0c0.1-0.1,0.2-0.3,0.2-0.4C180.4,253.8,180.3,253.8,180.2,253.8z"/>
		<path class="st0" d="M156.3,277.8C156.3,277.8,156.3,277.8,156.3,277.8c-0.2-0.3-0.5-0.5-0.7-0.5c-0.1,0-0.1,0-0.1-0.1
			c-0.1-0.1-0.1-0.2-0.3-0.2c0,0-0.1,0-0.1,0c0,0-0.1,0-0.1,0.1c0,0.9,0.4,1.3,1.1,1.4c0,0,0,0,0,0c0,0,0,0,0,0c0,0,0,0,0-0.1
			c0-0.1,0-0.2,0-0.3C156.3,278.1,156.3,278,156.3,277.8z"/>
		<path class="st0" d="M175.4,270.8c0,0,0.1-0.1,0.1-0.2c0-0.2,0-0.3,0.1-0.4c0.1-0.2,0.2-0.5,0.1-0.9c0-0.1-0.1-0.1-0.2-0.1
			l-0.8,0.1c-0.2,0-0.4,0.1-0.5,0.3c-0.1,0.1-0.1,0.3,0,0.4c0,0.1,0.1,0.1,0.2,0.1c0.1,0,0.2,0,0.3,0.2c0.1,0.2,0.3,0.4,0.6,0.4
			c0,0,0,0,0,0C175.3,270.9,175.4,270.8,175.4,270.8z"/>
		<path class="st0" d="M187.7,240.2c0.2,0,0.5-0.1,0.5-0.3c-0.2-0.2-0.4-0.4-0.6-0.7c0,0-0.1,0-0.1,0c-0.3,0-0.4,0.1-0.6,0.2
			c-0.1,0.1-0.2,0.1-0.4,0.2c0,0-0.1,0.1-0.1,0.1c0,0.4,0.1,0.7,0.3,0.9c0.1,0.1,0.2,0.1,0.4,0.1c0,0,0.1,0,0.1,0c0,0,0,0,0.1,0
			c0,0,0,0,0-0.1c0-0.1,0-0.1,0-0.2C187.4,240.2,187.5,240.2,187.7,240.2z"/>
		<path class="st0" d="M82.4,272.3C82.4,272.3,82.4,272.3,82.4,272.3c0-0.1-0.1-0.2-0.2-0.2c-0.7,0-1.1,0.1-1.3,0.3
			c-0.1,0.1-0.1,0.2-0.1,0.4c0.1,0.4,0.5,0.7,1,0.6C81.9,273.4,82.4,273.3,82.4,272.3z"/>
		<path class="st0" d="M193.3,249.8c-0.4,0.2-0.9,0.4-1.3,0.6C192.7,250.6,193.1,250.2,193.3,249.8z"/>
		<path class="st0" d="M182.3,262.4C182.3,262.4,182.3,262.4,182.3,262.4c0,0.1,0,0.2,0,0.2c0,0.2,0,0.4,0,0.6
			c0.3,0,0.5-0.1,0.7-0.1c0.1,0,0.3,0,0.4,0c-0.1-0.4-0.3-0.8-0.5-0.9c-0.2-0.1-0.3-0.1-0.5-0.1
			C182.3,262.2,182.3,262.3,182.3,262.4z"/>
		<path class="st0" d="M165.1,263.6C165.1,263.7,165.1,263.7,165.1,263.6c0,0.1,0,0.1,0,0.1c0.1,0.2,0.2,0.3,0.3,0.5
			c0,0.1,0,0.2,0,0.4c0,0.1,0,0.2,0,0.3c0,0.3,0.3,0.5,0.7,0.5c0,0,0.1,0,0.1,0c0,0,0.1-0.1,0.1-0.1c0-0.1,0.1-0.3,0.4-0.3
			c0.1,0,0.1-0.1,0.1-0.1c0-0.1,0-0.3,0-0.4c0-0.3-0.2-0.4-0.3-0.5c-0.1-0.1-0.2-0.2-0.2-0.4c0,0,0-0.1,0-0.1c0,0,0,0,0,0
			c0,0,0-0.1,0-0.1c0,0-0.1,0-0.1,0l-0.9,0.1C165.1,263.6,165.1,263.6,165.1,263.6z"/>
		<path class="st0" d="M168.9,270.7c0-0.2,0-0.3,0-0.4c0-0.3-0.1-0.6-0.4-0.7c-0.2-0.1-0.5-0.1-0.9,0.1c-0.1,0-0.1,0.1-0.1,0.2
			c0,0.2,0,0.3,0,0.5c0.1,0.4,0.2,0.7,0.4,0.9c0.3-0.1,0.6-0.1,1-0.2C168.9,270.9,168.9,270.8,168.9,270.7z"/>
		<path class="st0" d="M246.1,232.3l-1,0.2c-0.1,0-0.2,0.1-0.2,0.3l0.1,0.8c0.5,0,1,0,1.5,0l-0.1-1
			C246.4,232.3,246.3,232.2,246.1,232.3z"/>
		<path class="st0" d="M225.2,235.1C225.2,235,225.2,235,225.2,235.1c-0.1-0.1-0.1-0.1-0.2-0.1c-0.2,0-0.2-0.1-0.3-0.3
			c-0.1-0.2-0.3-0.6-0.8-0.5c-0.1,0-0.1,0.1-0.1,0.2c0,0.3-0.1,0.7-0.3,1c-0.2,0.4-0.3,0.8-0.3,1.2c0.2,0,0.3,0,0.5-0.1
			c0.1,0,0.3-0.1,0.4-0.2c0.1-0.1,0.2-0.2,0.3-0.3C224.9,235.9,225.2,235.6,225.2,235.1C225.2,235.1,225.2,235.1,225.2,235.1z"/>
		<path class="st0" d="M95.9,276C95.9,276,95.9,276,95.9,276c0.3-0.2,0.5-0.6,0.5-0.7c0-0.1,0-0.1,0.1-0.2c0.1-0.1,0.2-0.1,0.2-0.3
			c0,0,0-0.1,0-0.1c0,0,0-0.1-0.1-0.1c-0.9,0-1.5,0.5-1.6,1.2c0,0,0,0,0,0c0,0,0,0,0,0.1c0,0,0.1,0,0.1,0c0.1,0,0.2,0,0.3,0
			C95.6,276,95.7,276,95.9,276z"/>
		<path class="st0" d="M173.8,249.9l0,0.2c0.1,0.3,0.4,0.6,0.7,0.5l0.2,0c0.3-0.1,0.6-0.4,0.5-0.7l0-0.2c-0.1-0.3-0.4-0.6-0.7-0.5
			l-0.2,0C174,249.2,173.8,249.5,173.8,249.9z"/>
		<path class="st0" d="M203.4,206.1c-0.2,0.4-0.1,0.7,0,0.9c0.3,0.3,0.7,0.4,1.1,0.3c0.3-0.1,0.6-0.2,0.7-0.4c0.1-0.2,0.1-0.3,0-0.5
			c0-0.1-0.1-0.2-0.2-0.1c-0.2,0-0.3,0-0.3,0c0,0,0,0,0-0.1c0-0.1,0-0.1-0.1-0.2c-0.1,0-0.1-0.1-0.2-0.1l-0.9,0.1
			C203.5,206,203.4,206,203.4,206.1z"/>
	</g>
</g>
</svg>
