<?xml version="1.0" encoding="utf-8"?>
<!-- Generator: Adobe Illustrator 19.2.0, SVG Export Plug-In . SVG Version: 6.00 Build 0)  -->
<svg version="1.1" id="Layer_1" xmlns="http://www.w3.org/2000/svg" xmlns:xlink="http://www.w3.org/1999/xlink" x="0px" y="0px"
	 viewBox="0 0 365 281.1" style="enable-background:new 0 0 365 281.1;" xml:space="preserve">
<style type="text/css">
	.st0{fill:#CCCCCC;}
</style>
<g>
	<g>
		<path class="st0" d="M315.6,120.7L315.6,120.7c0.1,0,0.2,0,0.3,0c0.1,0,0.2,0,0.3,0c0.1,0,0.2,0,0.3,0c0.5,0,1.1,0,1.5-0.4
			c0,0,0.1-0.1,0.1-0.1c-0.2-0.4-0.2-0.6-0.4-1c-0.2-0.1-0.4-0.1-0.6-0.1c-0.5,0-1,0.2-1.4,0.5c-0.2,0.2-0.3,0.5-0.3,0.9
			C315.4,120.6,315.5,120.7,315.6,120.7z"/>
		<path class="st0" d="M263.8,143.9c0,0-0.1,0.1-0.2,0.1c-0.2,0-0.3,0.1-0.3,0.3s0.1,0.3,0.3,0.3c0.3,0,0.5-0.1,0.6-0.3
			c0.1-0.1,0.1-0.3,0.2-0.5C264.3,143.8,264.1,143.8,263.8,143.9C263.9,143.8,263.9,143.8,263.8,143.9z"/>
		<path class="st0" d="M315.4,153.6v-1.1c0-0.2-0.1-0.3-0.3-0.3h-0.9c-0.1,0.6-0.1,1.1-0.2,1.7h1.1
			C315.3,153.8,315.4,153.7,315.4,153.6z"/>
		<path class="st0" d="M275.8,128.3c0.1,0,0.1,0,0.2-0.1c0.1-0.1,0.1-0.1,0.1-0.2c-0.2-1-0.7-1.6-1.4-2c0,0.3-0.1,0.6-0.1,0.9
			c0,0.1,0,0.1,0,0.2c0,0.4,0,0.8,0.1,1.3c0,0.2,0,0.4,0.1,0.6c0,0,0,0,0,0c0.2-0.3,0.4-0.6,0.9-0.6
			C275.6,128.2,275.7,128.2,275.8,128.3C275.8,128.3,275.8,128.3,275.8,128.3z"/>
		<path class="st0" d="M250,131.9C250,131.9,250.1,131.9,250,131.9c0.1-0.1,0.1-0.1,0.1-0.1c0-0.1,0.1-0.2,0.3-0.2
			c0.2-0.1,0.6-0.2,0.5-0.6c0-0.1-0.1-0.1-0.1-0.1c-0.3,0-0.6-0.2-0.9-0.4c-0.4-0.2-0.7-0.4-1.1-0.4c0,0.1,0,0.3,0,0.4
			c0,0.1,0,0.3,0.1,0.4c0.1,0.1,0.1,0.2,0.2,0.3C249.3,131.5,249.5,131.9,250,131.9C250,131.9,250,131.9,250,131.9z"/>
		<path class="st0" d="M227.3,137.8c0,0.1-0.1,0.2-0.1,0.4c0,0,0,0.1,0,0.1l0,0C227.3,138.2,227.3,138.1,227.3,137.8
			C227.3,137.9,227.3,137.8,227.3,137.8C227.3,137.8,227.3,137.8,227.3,137.8z"/>
		<path class="st0" d="M181.7,155.8c0,0.1,0.1,0.2,0.2,0.2l0.3,0c0.8,0,1.4-0.9,0.9-1.6c-0.2-0.3-0.5-0.4-0.8-0.5c0,0,0,0,0,0
			c-0.1,0-0.2,0.1-0.2,0.2c0,0.2-0.1,0.3-0.2,0.4C181.7,154.8,181.5,155.1,181.7,155.8z"/>
		<path class="st0" d="M161.1,168.4c-0.4-0.3-0.7-0.2-0.9-0.1c-0.4,0.2-0.5,0.7-0.5,1c0,0.3,0.1,0.6,0.3,0.8
			c0.1,0.1,0.3,0.2,0.5,0.1c0.1,0,0.2-0.1,0.2-0.2c0-0.2,0-0.3,0.1-0.3c0,0,0,0,0.1,0c0.1,0,0.1,0,0.2,0c0.1,0,0.1-0.1,0.1-0.2
			l0-0.9C161.2,168.5,161.1,168.4,161.1,168.4z"/>
		<path class="st0" d="M301.4,121.5c0,0.2,0,0.3,0,0.5c0,0.3,0,0.7,0.3,0.9c0.2,0.2,0.5,0.2,0.9,0c0.1,0,0.1-0.1,0.2-0.2
			c0-0.2,0-0.4,0-0.5c0-0.5-0.1-0.8-0.3-1c-0.3,0-0.7,0-1.1,0C301.5,121.2,301.4,121.4,301.4,121.5z"/>
		<path class="st0" d="M241.4,100.1c0-0.1,0-0.3,0-0.4c0,0.1,0,0.2,0,0.2C241.4,100,241.4,100.1,241.4,100.1z"/>
		<path class="st0" d="M204.7,145.1c-0.1,0-0.2,0-0.3,0c-0.1,0-0.2,0.1-0.2,0.2c-0.2,1.4,0.4,1.8,1,1.9c0,0,0,0,0,0
			c0.1,0,0.1,0,0.1-0.1c0.4-0.4,0.5-0.9,0.3-1.4C205.6,145.3,205.2,145.1,204.7,145.1z"/>
		<path class="st0" d="M228.7,126.1C228.7,126.1,228.7,126.1,228.7,126.1c0.1,0,0.1,0,0.1-0.1c0,0,0,0,0.1,0
			c0.2-0.2,0.4-0.3,0.4-0.5c0-0.1-0.2-0.2-0.3-0.2c0,0,0,0,0,0c0,0-0.1,0-0.1,0c0,0,0,0,0,0.1c0,0,0,0,0,0c0,0,0,0-0.1,0
			c0,0,0,0-0.1,0c-0.1,0-0.2,0.2-0.2,0.4C228.5,126,228.6,126.1,228.7,126.1z"/>
		<path class="st0" d="M256,106C256,106,256,106,256,106c0.1,0.3,0.4,0.6,0.6,0.6c0.1,0,0.1,0,0.1,0.1c0,0.1,0.1,0.2,0.3,0.2
			c0,0,0.1,0,0.1,0c0,0,0.1,0,0.1-0.1c0.1-0.9-0.2-1.4-0.9-1.6c0,0,0,0,0,0c0,0,0,0-0.1,0c0,0,0,0,0,0.1c0,0.1,0,0.2-0.1,0.3
			C256.1,105.7,256,105.8,256,106z"/>
		<path class="st0" d="M236,110c0,0-0.1,0.1-0.1,0.2c0,0.2-0.1,0.3-0.2,0.4c-0.1,0.2-0.3,0.4-0.2,0.9c0,0.1,0.1,0.2,0.2,0.2h0.8
			c0.2,0,0.4,0,0.5-0.2c0.1-0.1,0.1-0.3,0.1-0.4c0-0.1-0.1-0.2-0.2-0.2c-0.1,0-0.2-0.1-0.3-0.3c-0.1-0.2-0.2-0.5-0.5-0.5
			c0,0,0,0,0,0C236.1,110,236.1,110,236,110z"/>
		<path class="st0" d="M219.3,138.4c-0.2,0-0.5,0-0.6,0.2c0.2,0.2,0.3,0.5,0.5,0.8c0,0,0.1,0,0.1,0c0.3,0,0.5-0.1,0.7-0.1
			c0.1,0,0.3-0.1,0.4-0.1c0,0,0.1,0,0.1-0.1c0-0.4,0-0.7-0.2-0.9c-0.1-0.1-0.2-0.1-0.4-0.1c0,0-0.1,0-0.1,0c0,0,0,0-0.1,0s0,0,0,0.1
			c0,0.1,0,0.1,0,0.2C219.6,138.4,219.4,138.4,219.3,138.4z"/>
		<path class="st0" d="M328.3,122.6C328.3,122.6,328.3,122.7,328.3,122.6c0,0.1,0.1,0.2,0.2,0.2c0.7,0.1,1.1,0.1,1.3-0.1
			c0.1-0.1,0.2-0.2,0.2-0.4c0-0.4-0.4-0.7-0.9-0.8C328.9,121.6,328.3,121.7,328.3,122.6z"/>
		<path class="st0" d="M215.2,128.1c0.5-0.1,0.9-0.3,1.4-0.4C215.9,127.4,215.5,127.7,215.2,128.1z"/>
		<path class="st0" d="M228,117.3L228,117.3c0-0.1,0-0.2,0-0.2c0-0.2,0-0.4,0.1-0.6c-0.3,0-0.5,0-0.7,0c-0.1,0-0.3,0-0.4,0
			c0,0.4,0.1,0.8,0.4,1c0.1,0.1,0.3,0.2,0.5,0.1C227.9,117.5,228,117.4,228,117.3z"/>
		<path class="st0" d="M245.2,118.7C245.2,118.6,245.2,118.6,245.2,118.7c0-0.1,0-0.1,0-0.2c-0.1-0.2-0.2-0.4-0.2-0.6
			c0-0.1,0-0.2,0-0.4c0-0.1,0-0.2,0-0.3c0-0.3-0.2-0.5-0.6-0.6c0,0-0.1,0-0.1,0c0,0-0.1,0.1-0.1,0.1c0,0.1-0.1,0.2-0.4,0.2
			c-0.1,0-0.1,0-0.2,0.1c0,0.1-0.1,0.3-0.1,0.4c0,0.3,0.1,0.4,0.2,0.6c0.1,0.1,0.2,0.2,0.2,0.4c0,0,0,0.1,0,0.1c0,0,0,0,0,0
			c0,0,0,0.1,0,0.1c0,0,0.1,0.1,0.1,0.1l0.9,0C245.1,118.7,245.2,118.7,245.2,118.7z"/>
		<path class="st0" d="M242.4,111.1c0,0.2,0,0.3,0,0.4c0,0.3,0,0.6,0.3,0.8c0.2,0.1,0.5,0.2,0.9,0c0.1,0,0.1-0.1,0.1-0.2
			c0-0.2,0-0.3,0-0.5c0-0.4-0.1-0.7-0.2-0.9c-0.3,0-0.6,0-1,0C242.5,110.9,242.5,111,242.4,111.1z"/>
		<path class="st0" d="M160.3,137.4h1c0.1,0,0.2-0.1,0.2-0.2v-0.8c-0.5-0.1-1-0.1-1.5-0.2v1C160,137.3,160.2,137.4,160.3,137.4z"/>
		<path class="st0" d="M181.4,137.8C181.4,137.8,181.4,137.9,181.4,137.8c0.1,0.1,0.1,0.1,0.1,0.2c0.2,0,0.2,0.1,0.3,0.4
			c0.1,0.3,0.2,0.6,0.7,0.6c0.1,0,0.1-0.1,0.1-0.1c0-0.3,0.2-0.7,0.4-1c0.2-0.4,0.4-0.8,0.5-1.2c-0.2,0-0.3,0-0.5,0
			c-0.1,0-0.3,0-0.4,0.1c-0.1,0.1-0.2,0.1-0.4,0.2C181.9,137,181.5,137.2,181.4,137.8L181.4,137.8z"/>
		<path class="st0" d="M315.4,117C315.4,117,315.4,117,315.4,117c-0.3,0.1-0.6,0.5-0.6,0.6c0,0.1,0,0.1-0.1,0.1
			c-0.1,0-0.2,0.1-0.2,0.3c0,0,0,0.1,0,0.1c0,0,0,0.1,0.1,0.1c0.9,0.1,1.5-0.2,1.8-1c0,0,0,0,0,0c0,0,0-0.1,0-0.1c0,0,0,0-0.1,0
			c-0.2,0-0.2,0-0.3-0.1C315.7,117,315.6,116.9,315.4,117z"/>
		<path class="st0" d="M234.5,131v-0.2c0-0.3-0.3-0.6-0.6-0.6h-0.2c-0.3,0-0.6,0.3-0.6,0.6v0.2c0,0.3,0.3,0.6,0.6,0.6h0.2
			C234.2,131.6,234.5,131.3,234.5,131z"/>
		<path class="st0" d="M198.6,169.7c0.3-0.4,0.2-0.7,0.1-0.9c-0.2-0.4-0.7-0.5-1-0.5c-0.3,0-0.6,0.1-0.8,0.3
			c-0.1,0.1-0.2,0.3-0.1,0.5c0,0.1,0.1,0.2,0.2,0.2c0.2,0,0.3,0,0.3,0.1c0,0,0,0,0,0.1c0,0.1,0,0.1,0,0.2c0,0.1,0.1,0.1,0.2,0.1
			l0.9,0C198.5,169.8,198.6,169.8,198.6,169.7z"/>
	</g>
	<path class="st0" d="M360.1,216.2C360.1,216.2,360.1,216.2,360.1,216.2c0.1,0,0.2,0,0.3,0c0.1,0,0.2,0,0.3,0c0.1,0,0.2,0,0.3,0
		c0.5,0,1.1,0,1.5-0.4c0,0,0.1-0.1,0.1-0.1c-0.2-0.4-0.2-0.6-0.4-1c-0.2-0.1-0.4-0.1-0.6-0.1c-0.5,0-1,0.2-1.4,0.5
		c-0.2,0.2-0.3,0.5-0.3,0.9C360,216.1,360,216.2,360.1,216.2z"/>
	<path class="st0" d="M207,44.2c0,0-0.1,0.1-0.2,0.1c-0.2,0-0.3,0.1-0.3,0.3c0,0.2,0.1,0.3,0.3,0.3c0.3,0,0.5-0.1,0.6-0.3
		c0.1-0.1,0.1-0.3,0.2-0.5C207.4,44.1,207.2,44.1,207,44.2C207,44.1,207,44.1,207,44.2z"/>
	<path class="st0" d="M258.5,53.9v-1.1c0-0.2-0.1-0.3-0.3-0.3h-0.9c-0.1,0.6-0.1,1.1-0.2,1.7h1.1C258.4,54.1,258.5,54,258.5,53.9z"
		/>
	<path class="st0" d="M219,28.6c0.1,0,0.1,0,0.2-0.1c0.1-0.1,0.1-0.1,0.1-0.2c-0.2-1-0.7-1.6-1.4-2c0,0.3-0.1,0.6-0.1,0.9
		c0,0.1,0,0.1,0,0.2c0,0.4,0,0.8,0.1,1.3c0,0.2,0,0.4,0.1,0.6c0,0,0,0,0,0c0.2-0.3,0.4-0.6,0.9-0.6C218.8,28.5,218.8,28.5,219,28.6
		C218.9,28.6,219,28.6,219,28.6z"/>
	<path class="st0" d="M193.1,32.2C193.2,32.2,193.2,32.2,193.1,32.2c0.1-0.1,0.1-0.1,0.1-0.1c0-0.1,0.1-0.2,0.3-0.2
		c0.2-0.1,0.6-0.2,0.5-0.6c0-0.1-0.1-0.1-0.1-0.1c-0.3,0-0.6-0.2-0.9-0.4c-0.4-0.2-0.7-0.4-1.1-0.4c0,0.1,0,0.3,0,0.4
		c0,0.1,0,0.3,0.1,0.4c0.1,0.1,0.1,0.2,0.2,0.3C192.4,31.8,192.6,32.2,193.1,32.2L193.1,32.2z"/>
	<path class="st0" d="M170.4,38.1c0,0.1-0.1,0.2-0.1,0.4c0,0,0,0.1,0,0.1l0,0C170.4,38.5,170.4,38.3,170.4,38.1
		C170.4,38.2,170.4,38.1,170.4,38.1C170.4,38.1,170.4,38.1,170.4,38.1z"/>
	<path class="st0" d="M124.8,56c0,0.1,0.1,0.2,0.2,0.2l0.3,0c0.8,0,1.4-0.9,0.9-1.6c-0.2-0.3-0.5-0.4-0.8-0.5c0,0,0,0,0,0
		c-0.1,0-0.2,0.1-0.2,0.2c0,0.2-0.1,0.3-0.2,0.4C124.9,55.1,124.7,55.4,124.8,56z"/>
	<path class="st0" d="M104.2,68.7c-0.4-0.3-0.7-0.2-0.9-0.1c-0.4,0.2-0.5,0.7-0.5,1c0,0.3,0.1,0.6,0.3,0.8c0.1,0.1,0.3,0.2,0.5,0.1
		c0.1,0,0.2-0.1,0.2-0.2c0-0.2,0-0.3,0.1-0.3c0,0,0,0,0.1,0c0.1,0,0.1,0,0.2,0c0.1,0,0.1-0.1,0.1-0.2l0-0.9
		C104.3,68.8,104.2,68.7,104.2,68.7z"/>
	<path class="st0" d="M346,217c0,0.2,0,0.3,0,0.5c0,0.3,0,0.7,0.3,0.9c0.2,0.2,0.5,0.2,0.9,0c0.1,0,0.1-0.1,0.2-0.2
		c0-0.2,0-0.4,0-0.5c0-0.5-0.1-0.8-0.3-1c-0.3,0-0.7,0-1.1,0C346,216.8,346,216.9,346,217z"/>
	<path class="st0" d="M184.5,0.4c0-0.1,0-0.3,0-0.4c0,0.1,0,0.2,0,0.2C184.5,0.3,184.5,0.4,184.5,0.4z"/>
	<path class="st0" d="M147.8,45.4c-0.1,0-0.2,0-0.3,0c-0.1,0-0.2,0.1-0.2,0.2c-0.2,1.4,0.4,1.8,1,1.9c0,0,0,0,0,0
		c0.1,0,0.1,0,0.1-0.1c0.4-0.4,0.5-0.9,0.3-1.4C148.7,45.6,148.3,45.4,147.8,45.4z"/>
	<path class="st0" d="M171.8,26.4C171.9,26.4,171.9,26.4,171.8,26.4c0.1,0,0.1,0,0.1-0.1c0,0,0,0,0.1,0c0.2-0.2,0.4-0.3,0.4-0.5
		c0-0.1-0.2-0.2-0.3-0.2c0,0,0,0,0,0c0,0-0.1,0-0.1,0c0,0,0,0,0,0.1c0,0,0,0,0,0c0,0,0,0-0.1,0c0,0,0,0-0.1,0
		c-0.1,0-0.2,0.2-0.2,0.4C171.6,26.3,171.7,26.4,171.8,26.4z"/>
	<path class="st0" d="M199.2,6.3C199.2,6.3,199.2,6.3,199.2,6.3c0.1,0.3,0.4,0.6,0.6,0.6c0.1,0,0.1,0,0.1,0.1c0,0.1,0.1,0.2,0.3,0.2
		c0,0,0.1,0,0.1,0c0,0,0.1,0,0.1-0.1c0.1-0.9-0.2-1.4-0.9-1.6c0,0,0,0,0,0c0,0,0,0-0.1,0c0,0,0,0,0,0.1c0,0.1,0,0.2-0.1,0.3
		C199.2,6,199.1,6.1,199.2,6.3z"/>
	<path class="st0" d="M179.2,10.3c0,0-0.1,0.1-0.1,0.2c0,0.2-0.1,0.3-0.2,0.4c-0.1,0.2-0.3,0.4-0.2,0.9c0,0.1,0.1,0.2,0.2,0.2h0.8
		c0.2,0,0.4,0,0.5-0.2c0.1-0.1,0.1-0.3,0.1-0.4c0-0.1-0.1-0.2-0.2-0.2c-0.1,0-0.2-0.1-0.3-0.3c-0.1-0.2-0.2-0.5-0.5-0.5c0,0,0,0,0,0
		C179.2,10.3,179.2,10.3,179.2,10.3z"/>
	<path class="st0" d="M162.4,38.7c-0.2,0-0.5,0-0.6,0.2c0.2,0.2,0.3,0.5,0.5,0.8c0,0,0.1,0,0.1,0c0.3,0,0.5-0.1,0.7-0.1
		c0.1,0,0.3-0.1,0.4-0.1c0,0,0.1,0,0.1-0.1c0-0.4,0-0.7-0.2-0.9c-0.1-0.1-0.2-0.1-0.4-0.1c0,0-0.1,0-0.1,0c0,0,0,0-0.1,0
		c0,0,0,0,0,0.1c0,0.1,0,0.1,0,0.2C162.7,38.7,162.6,38.7,162.4,38.7z"/>
	<path class="st0" d="M129.7,147.8C129.7,147.8,129.7,147.8,129.7,147.8c0,0.1,0.1,0.2,0.2,0.2c0.7,0.1,1.1,0.1,1.3-0.1
		c0.1-0.1,0.2-0.2,0.2-0.4c0-0.4-0.4-0.7-0.9-0.8C130.4,146.8,129.8,146.8,129.7,147.8z"/>
	<path class="st0" d="M158.3,28.4c0.5-0.1,0.9-0.3,1.4-0.4C159,27.7,158.6,28,158.3,28.4z"/>
	<path class="st0" d="M171.1,17.6C171.1,17.6,171.1,17.6,171.1,17.6c0-0.1,0-0.2,0-0.2c0-0.2,0-0.4,0.1-0.6c-0.3,0-0.5,0-0.7,0
		c-0.1,0-0.3,0-0.4,0c0,0.4,0.1,0.8,0.4,1c0.1,0.1,0.3,0.2,0.5,0.1C171,17.8,171.1,17.7,171.1,17.6z"/>
	<path class="st0" d="M188.3,19C188.3,18.9,188.3,18.9,188.3,19c0-0.1,0-0.1,0-0.2c-0.1-0.2-0.2-0.4-0.2-0.6c0-0.1,0-0.2,0-0.4
		c0-0.1,0-0.2,0-0.3c0-0.3-0.2-0.5-0.6-0.6c0,0-0.1,0-0.1,0c0,0-0.1,0.1-0.1,0.1c0,0.1-0.1,0.2-0.4,0.2c-0.1,0-0.1,0-0.2,0.1
		c0,0.1-0.1,0.3-0.1,0.4c0,0.3,0.1,0.4,0.2,0.6c0.1,0.1,0.2,0.2,0.2,0.4c0,0,0,0.1,0,0.1c0,0,0,0,0,0c0,0,0,0.1,0,0.1
		c0,0,0.1,0.1,0.1,0.1l0.9,0C188.2,19,188.3,19,188.3,19z"/>
	<path class="st0" d="M185.6,11.4c0,0.2,0,0.3,0,0.4c0,0.3,0,0.6,0.3,0.8c0.2,0.1,0.5,0.2,0.9,0c0.1,0,0.1-0.1,0.1-0.2
		c0-0.2,0-0.3,0-0.5c0-0.4-0.1-0.7-0.2-0.9c-0.3,0-0.6,0-1,0C185.6,11.2,185.6,11.3,185.6,11.4z"/>
	<path class="st0" d="M103.4,37.7h1c0.1,0,0.2-0.1,0.2-0.2v-0.8c-0.5-0.1-1-0.1-1.5-0.2v1C103.2,37.6,103.3,37.7,103.4,37.7z"/>
	<path class="st0" d="M124.5,38.1C124.5,38.1,124.5,38.2,124.5,38.1c0.1,0.1,0.1,0.1,0.1,0.2c0.2,0,0.2,0.1,0.3,0.4
		c0.1,0.3,0.2,0.6,0.7,0.6c0.1,0,0.1-0.1,0.1-0.1c0-0.3,0.2-0.7,0.4-1c0.2-0.4,0.4-0.8,0.5-1.2c-0.2,0-0.3,0-0.5,0
		c-0.1,0-0.3,0-0.4,0.1c-0.1,0.1-0.2,0.1-0.4,0.2C125,37.3,124.6,37.5,124.5,38.1C124.5,38.1,124.5,38.1,124.5,38.1z"/>
	<path class="st0" d="M360,212.5C360,212.5,360,212.5,360,212.5c-0.3,0.1-0.6,0.5-0.6,0.6c0,0.1,0,0.1-0.1,0.1
		c-0.1,0-0.2,0.1-0.2,0.3c0,0,0,0.1,0,0.1c0,0,0,0.1,0.1,0.1c0.9,0.1,1.5-0.2,1.8-1c0,0,0,0,0,0c0,0,0,0,0-0.1c0,0,0,0-0.1,0
		c-0.2,0-0.2,0-0.3-0.1C360.3,212.5,360.2,212.5,360,212.5z"/>
	<path class="st0" d="M177.6,31.2V31c0-0.3-0.3-0.6-0.6-0.6h-0.2c-0.3,0-0.6,0.3-0.6,0.6v0.2c0,0.3,0.3,0.6,0.6,0.6h0.2
		C177.3,31.9,177.6,31.6,177.6,31.2z"/>
	<path class="st0" d="M141.7,70c0.3-0.4,0.2-0.7,0.1-0.9c-0.2-0.4-0.7-0.5-1-0.5c-0.3,0-0.6,0.1-0.8,0.3c-0.1,0.1-0.2,0.3-0.1,0.5
		c0,0.1,0.1,0.2,0.2,0.2c0.2,0,0.3,0,0.3,0.1c0,0,0,0,0,0.1c0,0.1,0,0.1,0,0.2c0,0.1,0.1,0.1,0.2,0.1l0.9,0
		C141.6,70.1,141.7,70.1,141.7,70z"/>
	<path class="st0" d="M1.6,91.6L1.6,91.6c0,0.1,0.1,0.2,0.2,0.2c0.7,0.1,1.1,0.1,1.3-0.1c0.1-0.1,0.2-0.2,0.2-0.4
		c0-0.4-0.4-0.7-0.9-0.8C2.2,90.6,1.7,90.6,1.6,91.6z"/>
	<g>
		<path class="st0" d="M64.8,119L64.8,119c0-0.1,0-0.2,0-0.3c0-0.1,0-0.2,0-0.3c0-0.1,0-0.2,0-0.3c0-0.5,0-1.1-0.4-1.5
			c0,0-0.1-0.1-0.1-0.1c-0.4,0.2-0.6,0.2-1,0.4c-0.1,0.2-0.1,0.4-0.1,0.6c0,0.5,0.2,1,0.5,1.4c0.2,0.2,0.5,0.3,0.9,0.3
			C64.8,119.1,64.8,119,64.8,119z"/>
		<path class="st0" d="M88,170.7c0,0,0.1,0.1,0.1,0.2c0,0.2,0.1,0.3,0.3,0.3c0.2,0,0.3-0.1,0.3-0.3c0-0.3-0.1-0.5-0.3-0.6
			c-0.1-0.1-0.3-0.1-0.5-0.2C87.9,170.2,87.9,170.4,88,170.7C88,170.7,88,170.7,88,170.7z"/>
		<path class="st0" d="M97.7,119.1h-1.1c-0.2,0-0.3,0.1-0.3,0.3v0.9c0.6,0.1,1.1,0.1,1.7,0.2v-1.1C98,119.2,97.9,119.1,97.7,119.1z"
			/>
		<path class="st0" d="M72.4,158.7c0-0.1,0-0.1-0.1-0.2c-0.1-0.1-0.1-0.1-0.2-0.1c-1,0.2-1.6,0.7-2,1.4c0.3,0,0.6,0.1,0.9,0.1
			c0.1,0,0.1,0,0.2,0c0.4,0,0.8,0,1.3-0.1c0.2,0,0.4,0,0.6-0.1c0,0,0,0,0,0c-0.3-0.2-0.6-0.4-0.6-0.9
			C72.4,158.9,72.4,158.8,72.4,158.7C72.4,158.7,72.4,158.7,72.4,158.7z"/>
		<path class="st0" d="M76.1,184.5C76.1,184.5,76.1,184.4,76.1,184.5c-0.1-0.1-0.1-0.1-0.1-0.1c-0.1,0-0.2-0.1-0.2-0.3
			c-0.1-0.2-0.2-0.6-0.6-0.5c-0.1,0-0.1,0.1-0.1,0.1c0,0.3-0.2,0.6-0.4,0.9c-0.2,0.4-0.4,0.7-0.4,1.1c0.1,0,0.3,0,0.4,0
			c0.1,0,0.3,0,0.4-0.1c0.1-0.1,0.2-0.1,0.3-0.2C75.7,185.2,76,185,76.1,184.5C76.1,184.5,76.1,184.5,76.1,184.5z"/>
		<path class="st0" d="M65.7,133.1c0.2,0,0.3,0,0.5,0c0.3,0,0.7,0,0.9-0.3c0.2-0.2,0.2-0.5,0-0.9c0-0.1-0.1-0.1-0.2-0.2
			c-0.2,0-0.4,0-0.5,0c-0.5,0-0.8,0.1-1,0.3c0,0.3,0,0.7,0,1.1C65.4,133.1,65.5,133.1,65.7,133.1z"/>
		<path class="st0" d="M44.3,193.1c-0.1,0-0.3,0-0.4,0c0.1,0,0.2,0,0.2,0C44.2,193.1,44.2,193.1,44.3,193.1z"/>
		<path class="st0" d="M70.3,205.8C70.3,205.8,70.3,205.8,70.3,205.8c0-0.1,0-0.1-0.1-0.1c0,0,0,0,0-0.1c-0.2-0.2-0.3-0.4-0.5-0.4
			c-0.1,0-0.2,0.2-0.2,0.3c0,0,0,0,0,0c0,0,0,0.1,0,0.1c0,0,0,0,0.1,0c0,0,0,0,0,0c0,0,0,0,0,0.1c0,0,0,0,0,0.1
			c0,0.1,0.2,0.2,0.4,0.2C70.2,206,70.3,205.9,70.3,205.8z"/>
		<path class="st0" d="M50.2,178.5C50.2,178.5,50.2,178.5,50.2,178.5c0.3-0.1,0.6-0.4,0.6-0.6c0-0.1,0-0.1,0.1-0.1
			c0.1,0,0.2-0.1,0.2-0.3c0,0,0-0.1,0-0.1c0,0,0-0.1-0.1-0.1c-0.9-0.1-1.4,0.2-1.6,0.9c0,0,0,0,0,0c0,0,0,0,0,0.1c0,0,0,0,0.1,0
			c0.1,0,0.2,0,0.3,0.1C49.9,178.4,50,178.5,50.2,178.5z"/>
		<path class="st0" d="M54.2,198.5c0,0,0.1,0.1,0.2,0.1c0.2,0,0.3,0.1,0.4,0.2c0.2,0.1,0.4,0.3,0.9,0.2c0.1,0,0.2-0.1,0.2-0.2v-0.8
			c0-0.2,0-0.4-0.2-0.5c-0.1-0.1-0.3-0.1-0.4-0.1c-0.1,0-0.2,0.1-0.2,0.2c0,0.1-0.1,0.2-0.3,0.3c-0.2,0.1-0.5,0.2-0.5,0.5
			c0,0,0,0,0,0C54.1,198.4,54.2,198.4,54.2,198.5z"/>
		<path class="st0" d="M62.8,189.3C62.8,189.3,62.8,189.3,62.8,189.3c-0.1,0-0.1,0-0.2,0c-0.2,0.1-0.4,0.2-0.6,0.2
			c-0.1,0-0.2,0-0.4,0c-0.1,0-0.2,0-0.3,0c-0.3,0-0.5,0.2-0.6,0.6c0,0,0,0.1,0,0.1c0,0,0.1,0.1,0.1,0.1c0.1,0,0.2,0.1,0.2,0.4
			c0,0.1,0,0.1,0.1,0.2c0.1,0,0.3,0.1,0.4,0.1c0.3,0,0.4-0.1,0.6-0.2c0.1-0.1,0.2-0.2,0.4-0.2c0,0,0.1,0,0.1,0c0,0,0,0,0,0
			c0,0,0.1,0,0.1,0c0,0,0.1-0.1,0.1-0.1l0-0.9C62.9,189.4,62.9,189.4,62.8,189.3z"/>
		<path class="st0" d="M55.3,192.1c0.2,0,0.3,0,0.4,0c0.3,0,0.6,0,0.8-0.3c0.1-0.2,0.2-0.5,0-0.9c0-0.1-0.1-0.1-0.2-0.1
			c-0.2,0-0.3,0-0.5,0c-0.4,0-0.7,0.1-0.9,0.2c0,0.3,0,0.6,0,1C55.1,192.1,55.2,192.1,55.3,192.1z"/>
		<path class="st0" d="M61.1,119.1C61.1,119.1,61.1,119.1,61.1,119.1c0.1,0.3,0.5,0.6,0.6,0.6c0.1,0,0.1,0,0.1,0.1
			c0,0.1,0.1,0.2,0.3,0.2c0,0,0.1,0,0.1,0c0,0,0.1,0,0.1-0.1c0.1-0.9-0.2-1.5-1-1.8c0,0,0,0,0,0c0,0,0,0-0.1,0c0,0,0,0,0,0.1
			c0,0.2,0,0.2-0.1,0.3C61.2,118.8,61.1,118.9,61.1,119.1z"/>
		<path class="st0" d="M75.1,200.1h-0.2c-0.3,0-0.6,0.3-0.6,0.6v0.2c0,0.3,0.3,0.6,0.6,0.6h0.2c0.3,0,0.6-0.3,0.6-0.6v-0.2
			C75.7,200.3,75.5,200.1,75.1,200.1z"/>
	</g>
	<g>
		<path class="st0" d="M95.6,272.1C95.6,272.1,95.6,272.1,95.6,272.1c-0.1,0-0.2,0-0.3,0c-0.1,0-0.2,0-0.3,0c-0.1,0-0.2,0-0.3,0
			c-0.5,0.1-1.1,0.2-1.4,0.6c0,0-0.1,0.1-0.1,0.2c0.2,0.4,0.3,0.5,0.6,0.9c0.2,0,0.4,0,0.6,0c0.5-0.1,1-0.4,1.3-0.7
			c0.2-0.3,0.3-0.6,0.2-0.9C95.8,272.1,95.7,272,95.6,272.1z"/>
		<path class="st0" d="M143.2,241.3c0-0.1,0.1-0.1,0.1-0.1c0.2,0,0.3-0.2,0.2-0.3s-0.2-0.3-0.3-0.2c-0.3,0-0.5,0.2-0.6,0.4
			c-0.1,0.1-0.1,0.3-0.1,0.5C142.8,241.4,143,241.4,143.2,241.3C143.2,241.3,143.2,241.3,143.2,241.3z"/>
		<path class="st0" d="M90.8,239.5l0.2,1.1c0,0.1,0.2,0.3,0.3,0.2l0.8-0.1c0-0.6,0-1.2,0-1.7l-1.1,0.2
			C90.8,239.2,90.7,239.4,90.8,239.5z"/>
		<path class="st0" d="M133.7,258.5c-0.1,0-0.1,0-0.1,0.1c0,0.1-0.1,0.1,0,0.2c0.3,1,1,1.5,1.7,1.8c0-0.3,0-0.6,0-0.9
			c0-0.1,0-0.1,0-0.2c-0.1-0.4-0.2-0.8-0.2-1.2c-0.1-0.2-0.1-0.4-0.2-0.6c0,0,0,0,0,0c-0.2,0.4-0.3,0.7-0.8,0.7
			C133.9,258.5,133.8,258.5,133.7,258.5C133.7,258.5,133.7,258.5,133.7,258.5z"/>
		<path class="st0" d="M158.7,251C158.6,251,158.6,251,158.7,251c-0.1,0.1-0.1,0.1-0.1,0.1c0,0.1-0.1,0.2-0.3,0.3
			c-0.2,0.1-0.5,0.3-0.4,0.7c0,0.1,0.1,0.1,0.1,0.1c0.3,0,0.6,0.1,1,0.2c0.4,0.1,0.8,0.3,1.1,0.2c0-0.1,0-0.3-0.1-0.4
			c0-0.1-0.1-0.3-0.1-0.3c-0.1-0.1-0.2-0.2-0.2-0.3C159.4,251.3,159.2,250.9,158.7,251C158.7,251,158.7,251,158.7,251z"/>
		<path class="st0" d="M180.3,241.7c0-0.1,0-0.2,0-0.4c0,0,0-0.1,0-0.1l0,0C180.2,241.4,180.2,241.5,180.3,241.7
			C180.2,241.6,180.2,241.7,180.3,241.7C180.2,241.7,180.3,241.7,180.3,241.7z"/>
		<path class="st0" d="M222.6,217.1c0-0.1-0.1-0.1-0.2-0.1l-0.3,0c-0.8,0.1-1.2,1.1-0.7,1.7c0.2,0.3,0.6,0.3,0.9,0.3c0,0,0,0,0,0
			c0.1,0,0.2-0.1,0.2-0.2c0-0.2,0.1-0.3,0.1-0.5C222.7,218,222.8,217.7,222.6,217.1z"/>
		<path class="st0" d="M241.1,201.5c0.4,0.2,0.7,0.1,0.9,0c0.3-0.3,0.4-0.7,0.3-1.1c-0.1-0.3-0.2-0.6-0.4-0.7
			c-0.2-0.1-0.3-0.1-0.5,0c-0.1,0-0.2,0.1-0.1,0.2c0,0.2,0,0.3,0,0.3c0,0,0,0-0.1,0c-0.1,0-0.1,0-0.2,0.1c0,0.1-0.1,0.1-0.1,0.2
			l0.1,0.9C241,201.4,241,201.4,241.1,201.5z"/>
		<path class="st0" d="M109.4,269.1c0-0.2,0-0.3-0.1-0.5c0-0.3-0.1-0.6-0.4-0.8c-0.2-0.1-0.5-0.1-0.9,0.1c-0.1,0-0.1,0.1-0.1,0.2
			c0,0.2,0,0.4,0,0.5c0.1,0.5,0.2,0.8,0.4,1c0.3-0.1,0.6-0.1,1.1-0.2C109.5,269.3,109.4,269.2,109.4,269.1z"/>
		<path class="st0" d="M172,281.1c0,0.1,0,0.3,0.1,0.4c0-0.1,0-0.2,0-0.2C172,281.2,172,281.2,172,281.1z"/>
		<path class="st0" d="M201.5,231.1c0.1,0,0.2,0,0.3-0.1c0.1,0,0.1-0.1,0.1-0.2c0-1.4-0.7-1.7-1.3-1.7c0,0,0,0,0,0
			c-0.1,0-0.1,0-0.1,0.1c-0.3,0.4-0.4,1-0.1,1.4C200.6,231,201,231.2,201.5,231.1z"/>
		<path class="st0" d="M180.6,253.5C180.6,253.5,180.6,253.5,180.6,253.5c-0.1,0-0.1,0.1-0.1,0.1c0,0,0,0,0,0
			c-0.2,0.2-0.4,0.4-0.3,0.5c0.1,0.1,0.2,0.1,0.3,0.1l0,0c0,0,0,0,0.1,0c0,0,0-0.1,0-0.1c0,0,0,0,0,0c0,0,0,0,0.1,0c0,0,0,0,0.1,0
			c0.1-0.1,0.2-0.3,0.2-0.4C180.8,253.5,180.7,253.5,180.6,253.5z"/>
		<path class="st0" d="M156.6,277.5C156.6,277.5,156.6,277.5,156.6,277.5c-0.2-0.3-0.5-0.5-0.7-0.5c-0.1,0-0.1,0-0.1-0.1
			c-0.1-0.1-0.1-0.2-0.3-0.2c0,0-0.1,0-0.1,0c0,0-0.1,0-0.1,0.1c0,0.9,0.4,1.3,1.1,1.4c0,0,0,0,0,0c0,0,0,0,0,0c0,0,0,0,0-0.1
			c0-0.1,0-0.2,0-0.3C156.6,277.8,156.7,277.7,156.6,277.5z"/>
		<path class="st0" d="M175.8,270.5c0,0,0.1-0.1,0.1-0.2c0-0.2,0-0.3,0.1-0.4c0.1-0.2,0.2-0.5,0.1-0.9c0-0.1-0.1-0.1-0.2-0.1
			L175,269c-0.2,0-0.4,0.1-0.5,0.3c-0.1,0.1-0.1,0.3,0,0.4c0,0.1,0.1,0.1,0.2,0.1c0.1,0,0.2,0,0.3,0.2c0.1,0.2,0.3,0.4,0.6,0.4
			c0,0,0,0,0,0C175.7,270.6,175.8,270.6,175.8,270.5z"/>
		<path class="st0" d="M188.1,239.9c0.2,0,0.5-0.1,0.5-0.3c-0.2-0.2-0.4-0.4-0.6-0.7c0,0-0.1,0-0.1,0c-0.3,0-0.4,0.1-0.6,0.2
			c-0.1,0.1-0.2,0.1-0.4,0.2c0,0-0.1,0.1-0.1,0.1c0,0.4,0.1,0.7,0.3,0.9c0.1,0.1,0.2,0.1,0.4,0.1c0,0,0.1,0,0.1,0c0,0,0,0,0.1,0
			c0,0,0,0,0-0.1c0-0.1,0-0.1,0-0.2C187.8,240,187.9,239.9,188.1,239.9z"/>
		<path class="st0" d="M82.7,272C82.7,272,82.7,272,82.7,272c0-0.1-0.1-0.2-0.2-0.2c-0.7,0-1.1,0.1-1.3,0.3
			c-0.1,0.1-0.1,0.2-0.1,0.4c0.1,0.4,0.5,0.7,1,0.6C82.2,273.1,82.8,273,82.7,272z"/>
		<path class="st0" d="M193.7,249.5c-0.4,0.2-0.9,0.4-1.3,0.6C193.1,250.3,193.4,249.9,193.7,249.5z"/>
		<path class="st0" d="M182.7,262.1C182.7,262.1,182.7,262.1,182.7,262.1c0,0.1,0,0.2,0,0.2c0,0.2,0,0.4,0,0.6
			c0.3,0,0.5-0.1,0.7-0.1c0.1,0,0.3,0,0.4,0c-0.1-0.4-0.3-0.8-0.5-0.9c-0.2-0.1-0.3-0.1-0.5-0.1C182.7,261.9,182.7,262,182.7,262.1z
			"/>
		<path class="st0" d="M165.5,263.4C165.5,263.4,165.5,263.4,165.5,263.4c0,0.1,0,0.1,0,0.1c0.1,0.2,0.2,0.3,0.3,0.5
			c0,0.1,0,0.2,0,0.4c0,0.1,0,0.2,0,0.3c0,0.3,0.3,0.5,0.7,0.5c0,0,0.1,0,0.1,0c0,0,0.1-0.1,0.1-0.1c0-0.1,0.1-0.3,0.4-0.3
			c0.1,0,0.1-0.1,0.1-0.1c0-0.1,0-0.3,0-0.4c0-0.3-0.2-0.4-0.3-0.5c-0.1-0.1-0.2-0.2-0.2-0.4c0,0,0-0.1,0-0.1c0,0,0,0,0,0
			c0,0,0-0.1,0-0.1c0,0-0.1,0-0.1,0l-0.9,0.1C165.5,263.3,165.5,263.3,165.5,263.4z"/>
		<path class="st0" d="M169.3,270.4c0-0.2,0-0.3,0-0.4c0-0.3-0.1-0.6-0.4-0.7c-0.2-0.1-0.5-0.1-0.9,0.1c-0.1,0-0.1,0.1-0.1,0.2
			c0,0.2,0,0.3,0,0.5c0.1,0.4,0.2,0.7,0.4,0.9c0.3-0.1,0.6-0.1,1-0.2C169.3,270.6,169.3,270.5,169.3,270.4z"/>
		<path class="st0" d="M246.5,232l-1,0.2c-0.1,0-0.2,0.1-0.2,0.3l0.1,0.8c0.5,0,1,0,1.5,0l-0.1-1C246.8,232.1,246.7,232,246.5,232z"
			/>
		<path class="st0" d="M225.6,234.8C225.6,234.7,225.6,234.7,225.6,234.8c-0.1-0.1-0.1-0.1-0.2-0.1c-0.2,0-0.2-0.1-0.3-0.3
			c-0.1-0.2-0.3-0.6-0.8-0.5c-0.1,0-0.1,0.1-0.1,0.2c0,0.3-0.1,0.7-0.3,1c-0.2,0.4-0.3,0.8-0.3,1.2c0.2,0,0.3,0,0.5-0.1
			c0.1,0,0.3-0.1,0.4-0.2c0.1-0.1,0.2-0.2,0.3-0.3C225.2,235.6,225.6,235.4,225.6,234.8C225.6,234.8,225.6,234.8,225.6,234.8z"/>
		<path class="st0" d="M96.3,275.7C96.3,275.7,96.3,275.7,96.3,275.7c0.3-0.2,0.5-0.6,0.5-0.7c0-0.1,0-0.1,0.1-0.2
			c0.1-0.1,0.2-0.1,0.2-0.3c0,0,0-0.1,0-0.1c0,0,0-0.1-0.1-0.1c-0.9,0-1.5,0.5-1.6,1.2c0,0,0,0,0,0c0,0,0,0,0,0.1c0,0,0.1,0,0.1,0
			c0.1,0,0.2,0,0.3,0C96,275.7,96.1,275.7,96.3,275.7z"/>
		<path class="st0" d="M174.2,249.6l0,0.2c0.1,0.3,0.4,0.6,0.7,0.5l0.2,0c0.3-0.1,0.6-0.4,0.5-0.7l0-0.2c-0.1-0.3-0.4-0.6-0.7-0.5
			l-0.2,0C174.4,248.9,174.1,249.2,174.2,249.6z"/>
		<path class="st0" d="M203.7,205.8c-0.2,0.4-0.1,0.7,0,0.9c0.3,0.3,0.7,0.4,1.1,0.3c0.3-0.1,0.6-0.2,0.7-0.4c0.1-0.2,0.1-0.3,0-0.5
			c0-0.1-0.1-0.2-0.2-0.1c-0.2,0-0.3,0-0.3,0c0,0,0,0,0-0.1c0-0.1,0-0.1-0.1-0.2c-0.1,0-0.1-0.1-0.2-0.1l-0.9,0.1
			C203.8,205.7,203.8,205.7,203.7,205.8z"/>
	</g>
</g>
</svg>
