<svg id="Layer_1" data-name="Layer 1" xmlns="http://www.w3.org/2000/svg" viewBox="0 0 558.32 216.47"><defs><style>.cls-1{fill:#fff;}</style></defs><title>speckles-home</title><path class="cls-1" d="M260.91,217.11h0.92a2.1,2.1,0,0,0,1.48-.37,0.82,0.82,0,0,0,.11-0.14l-0.41-1a2,2,0,0,0-.57-0.08,1.88,1.88,0,0,0-1.36.52,1.15,1.15,0,0,0-.32.88A0.15,0.15,0,0,0,260.91,217.11Z" transform="translate(-3.59 -2.93)"/><path class="cls-1" d="M107.74,45.09a0.17,0.17,0,0,1-.15.07,0.3,0.3,0,1,0,0,.6,0.77,0.77,0,0,0,.63-0.31,1,1,0,0,0,.17-0.46c-0.21,0-.42,0-0.62,0A0.41,0.41,0,0,1,107.74,45.09Z" transform="translate(-3.59 -2.93)"/><path class="cls-1" d="M159.3,54.79V53.68a0.27,0.27,0,0,0-.27-0.27h-0.86c-0.06.59-.13,1.15-0.22,1.65H159A0.27,0.27,0,0,0,159.3,54.79Z" transform="translate(-3.59 -2.93)"/><path class="cls-1" d="M119.74,29.49a0.22,0.22,0,0,0,.22-0.26,2.89,2.89,0,0,0-1.43-2c0,0.29-.06.59-0.1,0.86a0.86,0.86,0,0,0,0,.19c0,0.39,0,.8.06,1.26,0,0.19,0,.39.07,0.61v0a1,1,0,0,1,.9-0.61l0.25,0h0Z" transform="translate(-3.59 -2.93)"/><path class="cls-1" d="M93.91,33.16A0.14,0.14,0,0,0,94.05,33c0-.14.1-0.18,0.32-0.24a0.55,0.55,0,0,0,.52-0.63A0.14,0.14,0,0,0,94.77,32a2.57,2.57,0,0,1-.91-0.38,2.71,2.71,0,0,0-1.07-.41q0,0.22,0,.43a0.6,0.6,0,0,0,.09.36,2.52,2.52,0,0,1,.18.34,1.08,1.08,0,0,0,.85.78h0Z" transform="translate(-3.59 -2.93)"/><path class="cls-1" d="M71.18,39l-0.09.35v0.09h0a0.62,0.62,0,0,0,.14-0.34,0.13,0.13,0,0,0,0-.1h0Z" transform="translate(-3.59 -2.93)"/><path class="cls-1" d="M25.58,57a0.2,0.2,0,0,0,.2.16h0.29A1.05,1.05,0,0,0,27,55.57a1.08,1.08,0,0,0-.79-0.47h0a0.2,0.2,0,0,0-.2.16,1.76,1.76,0,0,1-.19.44A1.66,1.66,0,0,0,25.58,57Z" transform="translate(-3.59 -2.93)"/><path class="cls-1" d="M5,69.61a0.82,0.82,0,0,0-.88-0.09,1.15,1.15,0,0,0-.49,1,1,1,0,0,0,.3.77,0.61,0.61,0,0,0,.53.12,0.23,0.23,0,0,0,.18-0.2A0.5,0.5,0,0,1,4.66,71a0.21,0.21,0,0,1,.13,0,0.23,0.23,0,0,0,.28-0.22V69.81A0.23,0.23,0,0,0,5,69.61Z" transform="translate(-3.59 -2.93)"/><path class="cls-1" d="M246.79,217.94c0,0.17,0,.33,0,0.48a1,1,0,0,0,.31.86,1,1,0,0,0,.95,0,0.23,0.23,0,0,0,.15-0.19,4.36,4.36,0,0,0,0-.52,1.87,1.87,0,0,0-.26-1l-1.15,0Q246.8,217.75,246.79,217.94Z" transform="translate(-3.59 -2.93)"/><path class="cls-1" d="M48.59,46.31l-0.29,0a0.2,0.2,0,0,0-.17.17c-0.17,1.4.44,1.79,1,1.86h0a0.2,0.2,0,0,0,.14-0.05A1.29,1.29,0,0,0,49.64,47,1.05,1.05,0,0,0,48.59,46.31Z" transform="translate(-3.59 -2.93)"/><path class="cls-1" d="M72.62,27.34h0a0.09,0.09,0,0,0,.08-0.07l0.05,0a0.59,0.59,0,0,0,.38-0.47,0.34,0.34,0,0,0-.32-0.19h0a0.1,0.1,0,0,0-.07,0,0.15,0.15,0,0,0,0,.14v0H72.62a0.38,0.38,0,0,0-.23.39A0.21,0.21,0,0,0,72.62,27.34Z" transform="translate(-3.59 -2.93)"/><path class="cls-1" d="M79.94,11.24a0.2,0.2,0,0,0-.08.15,0.66,0.66,0,0,1-.17.39,1,1,0,0,0-.23.88,0.2,0.2,0,0,0,.2.17h0.82A0.71,0.71,0,0,0,81,12.62a0.53,0.53,0,0,0,.07-0.44,0.2,0.2,0,0,0-.2-0.16c-0.15,0-.19-0.07-0.28-0.29a0.74,0.74,0,0,0-.5-0.52h0A0.2,0.2,0,0,0,79.94,11.24Z" transform="translate(-3.59 -2.93)"/><path class="cls-1" d="M63.18,39.65a0.56,0.56,0,0,0-.55.24,7.38,7.38,0,0,1,.47.78H63.2a2,2,0,0,0,.65-0.12,2.39,2.39,0,0,1,.41-0.1,0.1,0.1,0,0,0,.08-0.09,1.29,1.29,0,0,0-.16-0.93,0.51,0.51,0,0,0-.39-0.15H63.65a0.1,0.1,0,0,0-.08.11,0.21,0.21,0,0,1,0,.16A0.59,0.59,0,0,1,63.18,39.65Z" transform="translate(-3.59 -2.93)"/><path class="cls-1" d="M30.46,148.74h0a0.23,0.23,0,0,0,.19.23,1.69,1.69,0,0,0,1.33-.11,0.47,0.47,0,0,0,.17-0.37,0.9,0.9,0,0,0-.85-0.77A0.87,0.87,0,0,0,30.46,148.74Z" transform="translate(-3.59 -2.93)"/><path class="cls-1" d="M59.09,29.29c0.46-.14.92-0.27,1.37-0.37A1.06,1.06,0,0,0,59.09,29.29Z" transform="translate(-3.59 -2.93)"/><path class="cls-1" d="M71.87,18.53h0c0-.08,0-0.15,0-0.23a3.49,3.49,0,0,1,.06-0.63H70.85a1.35,1.35,0,0,0,.37,1,0.55,0.55,0,0,0,.47.13A0.23,0.23,0,0,0,71.87,18.53Z" transform="translate(-3.59 -2.93)"/><path class="cls-1" d="M89.09,27.15h0l-0.17,0H89l-0.58,0H87.56l0.21,0h1.32Z" transform="translate(-3.59 -2.93)"/><path class="cls-1" d="M470.86,112.44c0,0.15,0,.3,0,0.44a0.92,0.92,0,0,0,.28.78,0.94,0.94,0,0,0,.87,0,0.21,0.21,0,0,0,.14-0.17,4,4,0,0,0,0-.48,1.71,1.71,0,0,0-.24-0.95l-1,0Q470.87,112.27,470.86,112.44Z" transform="translate(-3.59 -2.93)"/><path class="cls-1" d="M4.19,38.61h1a0.24,0.24,0,0,0,.24-0.24V37.6c-0.53-.05-1-0.12-1.49-0.2v1A0.24,0.24,0,0,0,4.19,38.61Z" transform="translate(-3.59 -2.93)"/><path class="cls-1" d="M25.3,39a0.15,0.15,0,0,0,.14.15c0.15,0,.19.1,0.26,0.36a0.6,0.6,0,0,0,.69.57A0.15,0.15,0,0,0,26.53,40a2.82,2.82,0,0,1,.41-1,3,3,0,0,0,.45-1.17H26.93a0.66,0.66,0,0,0-.4.1,2.76,2.76,0,0,1-.37.2,1.18,1.18,0,0,0-.86.93v0Z" transform="translate(-3.59 -2.93)"/><path class="cls-1" d="M260.75,213.4h0a1,1,0,0,0-.61.63,0.17,0.17,0,0,1-.14.14,0.34,0.34,0,0,0-.24.31,0.53,0.53,0,0,0,0,.13,0.09,0.09,0,0,0,.08.07,1.42,1.42,0,0,0,1.75-1v0a0.09,0.09,0,0,0-.1-0.09,0.49,0.49,0,0,1-.33-0.08A0.66,0.66,0,0,0,260.75,213.4Z" transform="translate(-3.59 -2.93)"/><rect class="cls-1" x="73.29" y="28.38" width="1.49" height="1.49" rx="0.62" ry="0.62"/><path class="cls-1" d="M42.52,71a0.82,0.82,0,0,0,.09-0.88,1.15,1.15,0,0,0-1-.49,1,1,0,0,0-.77.3,0.61,0.61,0,0,0-.12.53,0.23,0.23,0,0,0,.2.18,0.5,0.5,0,0,1,.27.06,0.21,0.21,0,0,1,0,.13,0.23,0.23,0,0,0,.22.28h0.93A0.23,0.23,0,0,0,42.52,71Z" transform="translate(-3.59 -2.93)"/><path class="cls-1" d="M40.34,71.49v0a0.23,0.23,0,0,0,.19.22,1.69,1.69,0,0,0,1.33-.11A0.47,0.47,0,0,0,42,71.26a0.9,0.9,0,0,0-.85-0.77A0.87,0.87,0,0,0,40.34,71.49Z" transform="translate(-3.59 -2.93)"/><path class="cls-1" d="M559.4,217.11h0.92a2.1,2.1,0,0,0,1.48-.37,0.82,0.82,0,0,0,.11-0.14l-0.41-1a2,2,0,0,0-.57-0.08,1.88,1.88,0,0,0-1.36.52,1.15,1.15,0,0,0-.32.88A0.15,0.15,0,0,0,559.4,217.11Z" transform="translate(-3.59 -2.93)"/><path class="cls-1" d="M457.79,54.79V53.68a0.27,0.27,0,0,0-.27-0.27h-0.86c-0.06.59-.13,1.15-0.22,1.65h1.08A0.27,0.27,0,0,0,457.79,54.79Z" transform="translate(-3.59 -2.93)"/><path class="cls-1" d="M324.07,57a0.2,0.2,0,0,0,.2.16h0.29a1.05,1.05,0,0,0,.94-1.57,1.08,1.08,0,0,0-.79-0.47h0a0.2,0.2,0,0,0-.2.16,1.76,1.76,0,0,1-.19.44A1.66,1.66,0,0,0,324.07,57Z" transform="translate(-3.59 -2.93)"/><path class="cls-1" d="M303.45,69.61a0.82,0.82,0,0,0-.88-0.09,1.15,1.15,0,0,0-.49,1,1,1,0,0,0,.3.77,0.61,0.61,0,0,0,.53.12,0.23,0.23,0,0,0,.18-0.2,0.5,0.5,0,0,1,.06-0.27,0.21,0.21,0,0,1,.13,0,0.23,0.23,0,0,0,.28-0.22V69.81A0.23,0.23,0,0,0,303.45,69.61Z" transform="translate(-3.59 -2.93)"/><path class="cls-1" d="M545.28,217.94c0,0.17,0,.33,0,0.48a1,1,0,0,0,.31.86,1,1,0,0,0,.95,0,0.23,0.23,0,0,0,.15-0.19,4.36,4.36,0,0,0,0-.52,1.87,1.87,0,0,0-.26-1l-1.15,0Q545.3,217.75,545.28,217.94Z" transform="translate(-3.59 -2.93)"/><path class="cls-1" d="M50.81,3.35c0-.14,0-0.28,0-0.41a0.87,0.87,0,0,0,0,.23A0.69,0.69,0,0,0,50.81,3.35Z" transform="translate(-3.59 -2.93)"/><path class="cls-1" d="M347.09,46.31l-0.29,0a0.2,0.2,0,0,0-.17.17c-0.17,1.4.44,1.79,1,1.86h0a0.2,0.2,0,0,0,.14-0.05,1.29,1.29,0,0,0,.35-1.37A1.05,1.05,0,0,0,347.09,46.31Z" transform="translate(-3.59 -2.93)"/><path class="cls-1" d="M65.43,9.25v0a0.91,0.91,0,0,0,.58.56,0.15,0.15,0,0,1,.12.13,0.31,0.31,0,0,0,.29.22l0.12,0a0.08,0.08,0,0,0,.06-0.07,1.3,1.3,0,0,0-.9-1.6h0l-0.05,0a0.08,0.08,0,0,0,0,.07,0.44,0.44,0,0,1-.07.3A0.61,0.61,0,0,0,65.43,9.25Z" transform="translate(-3.59 -2.93)"/><path class="cls-1" d="M329,148.74h0a0.23,0.23,0,0,0,.19.23,1.69,1.69,0,0,0,1.33-.11,0.47,0.47,0,0,0,.17-0.37,0.9,0.9,0,0,0-.85-0.77A0.87,0.87,0,0,0,329,148.74Z" transform="translate(-3.59 -2.93)"/><path class="cls-1" d="M302.69,38.61h1a0.24,0.24,0,0,0,.24-0.24V37.6c-0.53-.05-1-0.12-1.49-0.2v1A0.24,0.24,0,0,0,302.69,38.61Z" transform="translate(-3.59 -2.93)"/><path class="cls-1" d="M323.8,39a0.15,0.15,0,0,0,.14.15c0.15,0,.19.1,0.26,0.36a0.6,0.6,0,0,0,.69.57A0.15,0.15,0,0,0,325,40a2.82,2.82,0,0,1,.41-1,3,3,0,0,0,.45-1.17h-0.47a0.66,0.66,0,0,0-.4.1,2.76,2.76,0,0,1-.37.2,1.18,1.18,0,0,0-.86.93v0Z" transform="translate(-3.59 -2.93)"/><path class="cls-1" d="M559.25,213.4h0a1,1,0,0,0-.61.63,0.17,0.17,0,0,1-.14.14,0.34,0.34,0,0,0-.24.31,0.53,0.53,0,0,0,0,.13,0.09,0.09,0,0,0,.08.07,1.42,1.42,0,0,0,1.75-1v0a0.09,0.09,0,0,0-.1-0.09,0.49,0.49,0,0,1-.33-0.08A0.66,0.66,0,0,0,559.25,213.4Z" transform="translate(-3.59 -2.93)"/><path class="cls-1" d="M341,71a0.82,0.82,0,0,0,.09-0.88,1.15,1.15,0,0,0-1-.49,1,1,0,0,0-.77.3,0.61,0.61,0,0,0-.12.53,0.23,0.23,0,0,0,.2.18,0.5,0.5,0,0,1,.27.06,0.21,0.21,0,0,1,0,.13,0.23,0.23,0,0,0,.22.28h0.93A0.23,0.23,0,0,0,341,71Z" transform="translate(-3.59 -2.93)"/><path class="cls-1" d="M200.83,92.49v0a0.23,0.23,0,0,0,.19.22,1.69,1.69,0,0,0,1.33-.11,0.47,0.47,0,0,0,.17-0.37,0.9,0.9,0,0,0-.85-0.77A0.87,0.87,0,0,0,200.83,92.49Z" transform="translate(-3.59 -2.93)"/><path class="cls-1" d="M297.38,129.22h0l0.19-.18,0.24-.22,0.24-.22a2.1,2.1,0,0,0,.84-1.27,0.82,0.82,0,0,0,0-.17l-1-.43a2,2,0,0,0-.48.33,1.88,1.88,0,0,0-.65,1.3,1.15,1.15,0,0,0,.36.86A0.15,0.15,0,0,0,297.38,129.22Z" transform="translate(-3.59 -2.93)"/><path class="cls-1" d="M274.72,181.17a0.17,0.17,0,0,1-.06.15,0.3,0.3,0,1,0,.4.44,0.77,0.77,0,0,0,.26-0.65,1,1,0,0,0-.19-0.46c-0.14.16-.3,0.29-0.44,0.45A0.41,0.41,0,0,1,274.72,181.17Z" transform="translate(-3.59 -2.93)"/><path class="cls-1" d="M319.39,153.67l-0.74-.82a0.27,0.27,0,0,0-.38,0l-0.63.58c0.35,0.48.67,0.94,0.95,1.37l0.8-.72A0.27,0.27,0,0,0,319.39,153.67Z" transform="translate(-3.59 -2.93)"/><path class="cls-1" d="M273.11,161.56a0.22,0.22,0,0,0,0-.34,2.89,2.89,0,0,0-2.44-.55c0.18,0.24.35,0.48,0.5,0.7a0.86,0.86,0,0,0,.12.14c0.28,0.27.58,0.56,0.89,0.89l0.46,0.4v0a1,1,0,0,1,.26-1.06l0.19-.15Z" transform="translate(-3.59 -2.93)"/><path class="cls-1" d="M256.47,181.64a0.14,0.14,0,0,0,0-.19c-0.09-.11,0-0.19.08-0.4a0.55,0.55,0,0,0,0-.82,0.14,0.14,0,0,0-.18,0,2.57,2.57,0,0,1-.93.33,2.71,2.71,0,0,0-1.07.41l0.28,0.32a0.6,0.6,0,0,0,.31.21,2.52,2.52,0,0,1,.36.13,1.08,1.08,0,0,0,1.15,0h0Z" transform="translate(-3.59 -2.93)"/><path class="cls-1" d="M287.49,139.33c0.1,0.13.21,0.26,0.31,0.37a1,1,0,0,0,.81.42,1,1,0,0,0,.72-0.62,0.23,0.23,0,0,0,0-.24,4.36,4.36,0,0,0-.33-0.41,1.87,1.87,0,0,0-.89-0.6l-0.84.79Z" transform="translate(-3.59 -2.93)"/><path class="cls-1" d="M228.7,163.88l-0.27-.31a0.87,0.87,0,0,0,.12.2A0.69,0.69,0,0,0,228.7,163.88Z" transform="translate(-3.59 -2.93)"/><path class="cls-1" d="M236.79,191.66l0,0a0.09,0.09,0,0,0,0-.11v-0.07a0.59,0.59,0,0,0,0-.6,0.34,0.34,0,0,0-.36.08h0a0.1,0.1,0,0,0,0,.07,0.15,0.15,0,0,0,.07.12l0,0-0.05,0,0,0a0.38,0.38,0,0,0,.09.44A0.21,0.21,0,0,0,236.79,191.66Z" transform="translate(-3.59 -2.93)"/><path class="cls-1" d="M243.49,158.41h0a0.91,0.91,0,0,0,.8,0,0.15,0.15,0,0,1,.18,0,0.31,0.31,0,0,0,.36,0l0.08-.09a0.08,0.08,0,0,0,0-.09,1.3,1.3,0,0,0-1.74-.58h0a0.08,0.08,0,0,0,0,.12,0.44,0.44,0,0,1,.15.27A0.61,0.61,0,0,0,243.49,158.41Z" transform="translate(-3.59 -2.93)"/><path class="cls-1" d="M231.39,174.82a0.2,0.2,0,0,0,0,.17,0.66,0.66,0,0,1,.14.41,1,1,0,0,0,.42.81,0.2,0.2,0,0,0,.26,0l0.61-.55a0.71,0.71,0,0,0,.26-0.52,0.53,0.53,0,0,0-.25-0.37,0.2,0.2,0,0,0-.25,0c-0.11.1-.19,0.07-0.4,0a0.74,0.74,0,0,0-.72-0.05l0,0A0.2,0.2,0,0,0,231.39,174.82Z" transform="translate(-3.59 -2.93)"/><path class="cls-1" d="M244,175.08a0.15,0.15,0,0,0,0-.06l-0.07,0a1,1,0,0,1-.51-0.3,2.08,2.08,0,0,1-.21-0.29,1.81,1.81,0,0,0-.18-0.25,0.66,0.66,0,0,0-.85-0.08,0.15,0.15,0,0,0-.07.2c0.06,0.11.08,0.25-.19,0.44a0.15,0.15,0,0,0,0,.19,1.36,1.36,0,0,0,.21.32,0.94,0.94,0,0,0,.54.29,0.66,0.66,0,0,1,.39.2L243,175.8l0,0a0.15,0.15,0,0,0,.21,0l0.66-.6A0.15,0.15,0,0,0,244,175.08Z" transform="translate(-3.59 -2.93)"/><path class="cls-1" d="M236.88,171.34c0.09,0.12.19,0.24,0.28,0.34a0.92,0.92,0,0,0,.74.39,0.94,0.94,0,0,0,.65-0.57,0.21,0.21,0,0,0,0-.22,4,4,0,0,0-.3-0.37,1.71,1.71,0,0,0-.81-0.54l-0.76.72Z" transform="translate(-3.59 -2.93)"/><path class="cls-1" d="M294.78,126.58v0a1,1,0,0,0,0,.88,0.17,0.17,0,0,1,0,.19,0.34,0.34,0,0,0,0,.4l0.1,0.08a0.09,0.09,0,0,0,.1,0,1.42,1.42,0,0,0,.64-1.91v0l-0.05,0a0.09,0.09,0,0,0-.08,0,0.49,0.49,0,0,1-.3.16A0.66,0.66,0,0,0,294.78,126.58Z" transform="translate(-3.59 -2.93)"/><rect class="cls-1" x="242.93" y="191.04" width="1.49" height="1.49" rx="0.62" ry="0.62" transform="translate(-69.23 210.83) rotate(-42.27)"/></svg>